<svg viewBox="0 0 23.1544 23.9978" xmlns="http://www.w3.org/2000/svg" xmlns:xlink="http://www.w3.org/1999/xlink" width="23.1544342" height="23.9978027" fill="none" customFrame="#000000">
	<g id="组合 761">
		<g id="组合 763">
			<path id="path" d="M11.4432 9.26533C13.859 9.26533 15.8258 7.29852 15.8258 4.88266C15.8258 2.46681 13.859 0.5 11.4432 0.5C9.02733 0.5 7.06052 2.46681 7.06052 4.88266C7.06052 7.29852 9.02733 9.26533 11.4432 9.26533ZM11.4432 1.37563C13.3763 1.37563 14.948 2.94729 14.948 4.88042C14.948 6.81355 13.3763 8.3852 11.4432 8.3852C9.51005 8.3852 7.9384 6.81355 7.9384 4.88042C7.9384 2.94729 9.51005 1.37563 11.4432 1.37563ZM22.6199 20.0064L19.4923 12.5591C19.1869 11.661 18.3472 11.0593 17.3975 11.0593L5.75605 11.0593C4.80857 11.0593 3.96661 11.6632 3.67249 12.5321L0.533678 20.0087C0.506736 20.0738 0.5 20.1412 0.50449 20.2063L0.5 20.2063L0.5 20.6441C0.5 22.218 1.89652 23.4978 3.61412 23.4978L12.5074 23.4978C14.225 23.4978 15.6215 22.218 15.6215 20.6441C15.6215 19.0702 14.225 17.7904 12.5074 17.7904L8.93079 17.7904L5.90648 11.9349L17.3997 11.9349C17.9723 11.9349 18.4797 12.2986 18.675 12.8689L21.8138 20.3455C21.8834 20.5139 22.0473 20.6149 22.218 20.6149C22.2741 20.6149 22.3325 20.6037 22.3864 20.5812C22.6086 20.4869 22.7142 20.231 22.6199 20.0064ZM4.492 12.8397C4.59079 12.5478 4.78612 12.3098 5.03309 12.1504L10.4396 22.6199L7.22891 22.6199L3.59166 14.9884L4.492 12.8397ZM1.37788 20.6441L1.37788 20.2646L3.13588 16.0728L6.25674 22.6221L3.61636 22.6221C2.38149 22.6199 1.37788 21.733 1.37788 20.6441ZM12.5097 18.6683C13.7445 18.6683 14.7481 19.5552 14.7481 20.6441C14.7481 21.733 13.7445 22.6199 12.5097 22.6199L11.4118 22.6199C11.405 22.5997 11.405 22.5795 11.396 22.5615L9.38432 18.666L12.5097 18.6683Z" fill="rgb(51,51,51)" fill-rule="nonzero" />
			<path id="path" d="M15.8258 4.88266C15.8258 2.46681 13.859 0.5 11.4432 0.5C9.02733 0.5 7.06052 2.46681 7.06052 4.88266C7.06052 7.29852 9.02733 9.26533 11.4432 9.26533C13.859 9.26533 15.8258 7.29852 15.8258 4.88266ZM14.948 4.88042C14.948 6.81355 13.3763 8.3852 11.4432 8.3852C9.51005 8.3852 7.9384 6.81355 7.9384 4.88042C7.9384 2.94729 9.51005 1.37563 11.4432 1.37563C13.3763 1.37563 14.948 2.94729 14.948 4.88042ZM19.4923 12.5591C19.1869 11.661 18.3472 11.0593 17.3975 11.0593L5.75605 11.0593C4.80857 11.0593 3.96661 11.6632 3.67249 12.5321L0.533678 20.0087C0.506736 20.0738 0.5 20.1412 0.50449 20.2063L0.5 20.2063L0.5 20.6441C0.5 22.218 1.89652 23.4978 3.61412 23.4978L12.5074 23.4978C14.225 23.4978 15.6215 22.218 15.6215 20.6441C15.6215 19.0702 14.225 17.7904 12.5074 17.7904L8.93079 17.7904L5.90648 11.9349L17.3997 11.9349C17.9723 11.9349 18.4797 12.2986 18.675 12.8689L21.8138 20.3455C21.8834 20.5139 22.0473 20.6149 22.218 20.6149C22.2741 20.6149 22.3325 20.6037 22.3864 20.5812C22.6086 20.4869 22.7142 20.231 22.6199 20.0064L19.4923 12.5591ZM5.03309 12.1504L10.4396 22.6199L7.22891 22.6199L3.59166 14.9884L4.492 12.8397C4.59079 12.5478 4.78612 12.3098 5.03309 12.1504ZM1.37788 20.2646L3.13588 16.0728L6.25674 22.6221L3.61636 22.6221C2.38149 22.6199 1.37788 21.733 1.37788 20.6441L1.37788 20.2646ZM14.7481 20.6441C14.7481 21.733 13.7445 22.6199 12.5097 22.6199L11.4118 22.6199C11.405 22.5997 11.405 22.5795 11.396 22.5615L9.38432 18.666L12.5097 18.6683C13.7445 18.6683 14.7481 19.5552 14.7481 20.6441Z" fill-rule="nonzero" stroke="rgb(51,51,51)" stroke-width="1" />
			<path id="矢量 60" d="M0 0L7.16 0" stroke="rgb(6,148,86)" stroke-linecap="round" stroke-width="1.70000005" transform="matrix(0.419063,0.907957,-0.907957,0.419063,3.55817,15.4963)" />
			<path id="矢量 60" d="M0 0L10.0613 0" stroke="rgb(6,148,86)" stroke-linecap="round" stroke-width="1.70000005" transform="matrix(0.447233,0.894417,-0.894417,0.447233,6.05804,12.9983)" />
		</g>
	</g>
</svg>
