<svg viewBox="0 0 27 27" xmlns="http://www.w3.org/2000/svg" xmlns:xlink="http://www.w3.org/1999/xlink" width="27" height="27" fill="none">
	<rect id="_jiatingguanxi" width="27" height="27" x="0" y="0" />
	<path id="path" d="M13.5 21.4749C13.15 21.4749 12.8 21.3499 12.5 21.0999C10.1 18.8749 7.55 16.3249 7.5 14.3999C7.475 13.4999 7.8 12.6499 8.4 11.9999C9.075 11.2999 10.025 10.8999 10.975 10.8999C11.925 10.8999 12.85 11.2999 13.475 11.9749C14.125 11.2999 15.025 10.8999 16 10.8999C17.925 10.8999 19.475 12.4749 19.475 14.3749C19.475 16.1499 17.075 18.6499 14.475 21.0749C14.225 21.3499 13.85 21.4749 13.5 21.4749ZM10.975 12.3999C10.425 12.3999 9.875 12.6249 9.475 13.0249C9.15 13.3749 8.975 13.8499 8.975 14.3249C9.025 15.7749 12.275 18.8249 13.5 19.9749C16.475 17.1749 18 15.2999 18 14.3749C18 13.2749 17.1 12.3999 16.025 12.3999C15.325 12.3999 14.675 12.7749 14.3 13.3999C13.85 14.1749 13.05 14.1249 12.675 13.3499C12.35 12.7749 11.7 12.3999 10.975 12.3999Z" fill="rgb(6,148,86)" fill-rule="nonzero" />
	<path id="path" d="M12.5 21.0999C10.1 18.8749 7.55 16.3249 7.5 14.3999C7.475 13.4999 7.8 12.6499 8.4 11.9999C9.075 11.2999 10.025 10.8999 10.975 10.8999C11.925 10.8999 12.85 11.2999 13.475 11.9749C14.125 11.2999 15.025 10.8999 16 10.8999C17.925 10.8999 19.475 12.4749 19.475 14.3749C19.475 16.1499 17.075 18.6499 14.475 21.0749C14.225 21.3499 13.85 21.4749 13.5 21.4749C13.15 21.4749 12.8 21.3499 12.5 21.0999ZM9.475 13.0249C9.15 13.3749 8.975 13.8499 8.975 14.3249C9.025 15.7749 12.275 18.8249 13.5 19.9749C16.475 17.1749 18 15.2999 18 14.3749C18 13.2749 17.1 12.3999 16.025 12.3999C15.325 12.3999 14.675 12.7749 14.3 13.3999C13.85 14.1749 13.05 14.1249 12.675 13.3499C12.35 12.7749 11.7 12.3999 10.975 12.3999C10.425 12.3999 9.875 12.6249 9.475 13.0249Z" fill-rule="nonzero" stroke="rgb(6,148,86)" stroke-width="0.400000006" />
	<path id="path" d="M22.8 24.55C22.8 24.975 22.45 25.325 22.025 25.325L4.97499 25.325C4.54999 25.325 4.19999 24.975 4.19999 24.55L4.19999 14.15C4.19999 13.725 4.54999 13.375 4.97499 13.375C5.39999 13.375 5.74999 13.725 5.74999 14.15L5.74999 23C5.74999 23.425 6.09999 23.775 6.52499 23.775L20.5 23.775C20.925 23.775 21.275 23.425 21.275 23L21.275 14.15C21.275 13.725 21.625 13.375 22.05 13.375C22.475 13.375 22.825 13.725 22.825 14.15L22.825 24.55L22.8 24.55ZM25.275 11.8L22.775 9.375L22.775 4.425C22.775 4 22.425 3.675 22.025 3.675L19.375 3.675C18.95 3.675 18.625 4.025 18.625 4.425L18.625 5.825L14.025 1.875C13.725 1.625 13.3 1.625 13.025 1.875L1.74999 11.8C1.42499 12.075 1.39999 12.575 1.67499 12.875C1.94999 13.2 2.44999 13.225 2.77499 12.95L13.025 3.9C13.325 3.65 13.75 3.65 14.025 3.9L20.125 9.1L21.2 10.05L24.175 12.9C24.475 13.2 24.975 13.2 25.275 12.875C25.575 12.6 25.575 12.1 25.275 11.8ZM20.15 7.05L20.15 5.775C20.15 5.475 20.4 5.225 20.7 5.225C21 5.225 21.25 5.475 21.25 5.775L21.25 8.025L20.15 7.05Z" fill="rgb(51,51,51)" fill-rule="nonzero" />
	<path id="path" d="M22.025 25.325L4.97499 25.325C4.54999 25.325 4.19999 24.975 4.19999 24.55L4.19999 14.15C4.19999 13.725 4.54999 13.375 4.97499 13.375C5.39999 13.375 5.74999 13.725 5.74999 14.15L5.74999 23C5.74999 23.425 6.09999 23.775 6.52499 23.775L20.5 23.775C20.925 23.775 21.275 23.425 21.275 23L21.275 14.15C21.275 13.725 21.625 13.375 22.05 13.375C22.475 13.375 22.825 13.725 22.825 14.15L22.825 24.55L22.8 24.55C22.8 24.975 22.45 25.325 22.025 25.325ZM22.775 9.375L22.775 4.425C22.775 4 22.425 3.675 22.025 3.675L19.375 3.675C18.95 3.675 18.625 4.025 18.625 4.425L18.625 5.825L14.025 1.875C13.725 1.625 13.3 1.625 13.025 1.875L1.74999 11.8C1.42499 12.075 1.39999 12.575 1.67499 12.875C1.94999 13.2 2.44999 13.225 2.77499 12.95L13.025 3.9C13.325 3.65 13.75 3.65 14.025 3.9L20.125 9.1L21.2 10.05L24.175 12.9C24.475 13.2 24.975 13.2 25.275 12.875C25.575 12.6 25.575 12.1 25.275 11.8L22.775 9.375ZM20.15 5.775C20.15 5.475 20.4 5.225 20.7 5.225C21 5.225 21.25 5.475 21.25 5.775L21.25 8.025L20.15 7.05L20.15 5.775Z" fill-rule="nonzero" stroke="rgb(51,51,51)" stroke-width="0.400000006" />
</svg>
