<svg viewBox="0 0 24 24" xmlns="http://www.w3.org/2000/svg" xmlns:xlink="http://www.w3.org/1999/xlink" width="24" height="24" fill="none">
	<rect id="laodonghetong" width="24" height="24" x="0" y="0" />
	<path id="path" d="M14.6739 5.96729C14.6739 5.91804 14.669 5.86885 14.6594 5.82055C14.6498 5.77225 14.6357 5.72542 14.6169 5.67992C14.598 5.63442 14.5749 5.59145 14.5476 5.55051C14.5202 5.50956 14.4891 5.47222 14.4543 5.43739C14.4195 5.40257 14.3816 5.371 14.3407 5.34364C14.2998 5.31628 14.2565 5.2932 14.211 5.27435C14.1655 5.25551 14.1184 5.24116 14.0701 5.23155C14.0219 5.22194 13.9732 5.21729 13.9239 5.21729L4.92392 5.21729C4.87467 5.21729 4.82599 5.22194 4.77769 5.23155C4.72939 5.24116 4.68231 5.25551 4.63681 5.27435C4.59131 5.2932 4.54809 5.31628 4.50714 5.34364C4.46619 5.371 4.42834 5.40257 4.39352 5.43739C4.3587 5.47222 4.32764 5.50956 4.30028 5.55051C4.27292 5.59145 4.24983 5.63442 4.23098 5.67992C4.21214 5.72542 4.19805 5.77225 4.18844 5.82055C4.17883 5.86885 4.17392 5.91804 4.17392 5.96729C4.17392 6.01653 4.17883 6.06572 4.18844 6.11402C4.19805 6.16232 4.21214 6.20915 4.23098 6.25465C4.24983 6.30015 4.27292 6.34312 4.30028 6.38407C4.32764 6.42501 4.3587 6.46235 4.39352 6.49718C4.42834 6.532 4.46619 6.56357 4.50714 6.59093C4.54809 6.61829 4.59131 6.64137 4.63681 6.66022C4.68231 6.67907 4.72939 6.69341 4.77769 6.70302C4.82599 6.71263 4.87467 6.71729 4.92392 6.71729L13.9239 6.71729C13.9732 6.71729 14.0219 6.71263 14.0701 6.70302C14.1184 6.69341 14.1655 6.67907 14.211 6.66022C14.2565 6.64137 14.2998 6.61829 14.3407 6.59093C14.3816 6.56357 14.4195 6.532 14.4543 6.49718C14.4891 6.46235 14.5202 6.42501 14.5476 6.38407C14.5749 6.34312 14.598 6.30015 14.6169 6.25465C14.6357 6.20915 14.6498 6.16232 14.6594 6.11402C14.669 6.06572 14.6739 6.01653 14.6739 5.96729ZM8.67392 11.9673C8.67392 11.918 8.66901 11.8688 8.6594 11.8205C8.64979 11.7722 8.6357 11.7254 8.61685 11.6799C8.59801 11.6344 8.57492 11.5915 8.54756 11.5505C8.5202 11.5096 8.48914 11.4722 8.45432 11.4374C8.4195 11.4026 8.38165 11.371 8.3407 11.3436C8.29975 11.3163 8.25653 11.2932 8.21103 11.2744C8.16553 11.2555 8.11845 11.2412 8.07015 11.2316C8.02185 11.2219 7.97317 11.2173 7.92392 11.2173L4.92392 11.2173C4.87467 11.2173 4.82599 11.2219 4.77769 11.2316C4.72939 11.2412 4.68231 11.2555 4.63681 11.2744C4.59131 11.2932 4.54809 11.3163 4.50714 11.3436C4.46619 11.371 4.42834 11.4026 4.39352 11.4374C4.3587 11.4722 4.32764 11.5096 4.30028 11.5505C4.27292 11.5915 4.24983 11.6344 4.23098 11.6799C4.21214 11.7254 4.19805 11.7722 4.18844 11.8205C4.17883 11.8688 4.17392 11.918 4.17392 11.9673C4.17392 12.0165 4.17883 12.0657 4.18844 12.114C4.19805 12.1623 4.21214 12.2092 4.23098 12.2546C4.24983 12.3001 4.27292 12.3431 4.30028 12.3841C4.32764 12.425 4.3587 12.4624 4.39352 12.4972C4.42834 12.532 4.46619 12.5636 4.50714 12.5909C4.54809 12.6183 4.59131 12.6414 4.63681 12.6602C4.68231 12.6791 4.72939 12.6934 4.77769 12.703C4.82599 12.7126 4.87467 12.7173 4.92392 12.7173L7.92392 12.7173C7.97317 12.7173 8.02185 12.7126 8.07015 12.703C8.11845 12.6934 8.16553 12.6791 8.21103 12.6602C8.25653 12.6414 8.29975 12.6183 8.3407 12.5909C8.38165 12.5636 8.4195 12.532 8.45432 12.4972C8.48914 12.4624 8.5202 12.425 8.54756 12.3841C8.57492 12.3431 8.59801 12.3001 8.61685 12.2546C8.6357 12.2092 8.64979 12.1623 8.6594 12.114C8.66901 12.0657 8.67392 12.0165 8.67392 11.9673ZM4.92392 16.1738C4.87467 16.1738 4.8259 16.1786 4.7776 16.1882C4.7293 16.1978 4.6824 16.2121 4.63691 16.2309C4.59141 16.2497 4.54819 16.2728 4.50724 16.3002C4.4663 16.3276 4.42841 16.3587 4.39359 16.3935C4.35877 16.4283 4.32768 16.4662 4.30032 16.5071C4.27296 16.5481 4.24986 16.5913 4.23101 16.6368C4.21216 16.6823 4.19794 16.7292 4.18833 16.7775C4.17872 16.8258 4.17392 16.8746 4.17392 16.9238C4.17392 16.9731 4.17872 17.0218 4.18833 17.0701C4.19794 17.1184 4.21216 17.1653 4.23101 17.2108C4.24986 17.2563 4.27296 17.2995 4.30032 17.3405C4.32768 17.3814 4.35877 17.4193 4.39359 17.4541C4.42841 17.489 4.4663 17.52 4.50724 17.5474C4.54819 17.5748 4.59141 17.5979 4.63691 17.6167C4.6824 17.6356 4.7293 17.6498 4.7776 17.6594C4.8259 17.669 4.87467 17.6738 4.92392 17.6738L6.42392 17.6738C6.47317 17.6738 6.52194 17.669 6.57024 17.6594C6.61854 17.6498 6.66543 17.6356 6.71093 17.6167C6.75643 17.5979 6.79965 17.5748 6.8406 17.5474C6.88154 17.52 6.91943 17.489 6.95425 17.4541C6.98907 17.4193 7.02016 17.3814 7.04752 17.3405C7.07488 17.2995 7.09798 17.2563 7.11683 17.2108C7.13567 17.1653 7.1499 17.1184 7.15951 17.0701C7.16912 17.0218 7.17392 16.9731 7.17392 16.9238C7.17392 16.8746 7.16912 16.8258 7.15951 16.7775C7.1499 16.7292 7.13567 16.6823 7.11683 16.6368C7.09798 16.5913 7.07488 16.5481 7.04752 16.5071C7.02016 16.4662 6.98907 16.4283 6.95425 16.3935C6.91943 16.3587 6.88154 16.3276 6.8406 16.3002C6.79965 16.2728 6.75643 16.2497 6.71093 16.2309C6.66543 16.2121 6.61854 16.1978 6.57024 16.1882C6.52194 16.1786 6.47317 16.1738 6.42392 16.1738L4.92392 16.1738ZM16.1739 8.67381C16.0512 8.67381 15.9285 8.67682 15.8059 8.68284C15.6833 8.68886 15.5609 8.69789 15.4388 8.70992C15.3166 8.72195 15.1949 8.73697 15.0734 8.75498C14.952 8.77299 14.8311 8.79397 14.7107 8.81792C14.5904 8.84186 14.4706 8.86875 14.3516 8.89857C14.2325 8.9284 14.1142 8.96112 13.9968 8.99675C13.8793 9.03238 13.7628 9.07088 13.6472 9.11223C13.5317 9.15358 13.4172 9.19774 13.3038 9.24471C13.1904 9.29168 13.0782 9.34141 12.9673 9.39389C12.8563 9.44637 12.7467 9.50154 12.6384 9.5594C12.5302 9.61726 12.4234 9.67774 12.3181 9.74084C12.2129 9.80394 12.1092 9.86959 12.0071 9.93778C11.9051 10.006 11.8048 10.0766 11.7062 10.1497C11.6076 10.2229 11.5109 10.2984 11.416 10.3762C11.3211 10.4541 11.2282 10.5342 11.1372 10.6167C11.0463 10.6991 10.9574 10.7837 10.8706 10.8705C10.7838 10.9573 10.6992 11.0462 10.6168 11.1371C10.5344 11.2281 10.4542 11.321 10.3763 11.4159C10.2985 11.5107 10.223 11.6075 10.1499 11.7061C10.0767 11.8047 10.0061 11.905 9.9379 12.007C9.8697 12.1091 9.80406 12.2128 9.74095 12.318C9.67785 12.4233 9.61737 12.5301 9.55951 12.6383C9.50165 12.7466 9.44648 12.8562 9.394 12.9671C9.34152 13.0781 9.29179 13.1903 9.24482 13.3037C9.19785 13.4171 9.15369 13.5316 9.11234 13.6471C9.07099 13.7627 9.0325 13.8792 8.99687 13.9967C8.96124 14.1141 8.92851 14.2324 8.89868 14.3515C8.86886 14.4705 8.84198 14.5902 8.81803 14.7106C8.79408 14.831 8.77311 14.9519 8.7551 15.0733C8.73709 15.1947 8.72206 15.3165 8.71003 15.4387C8.698 15.5608 8.68898 15.6832 8.68295 15.8058C8.67693 15.9284 8.67392 16.0511 8.67392 16.1738C8.67392 16.2965 8.67693 16.4192 8.68295 16.5418C8.68898 16.6644 8.698 16.7868 8.71003 16.9089C8.72206 17.0311 8.73709 17.1529 8.7551 17.2743C8.77311 17.3957 8.79408 17.5166 8.81803 17.637C8.84198 17.7574 8.86886 17.8771 8.89868 17.9962C8.92851 18.1152 8.96124 18.2335 8.99687 18.3509C9.0325 18.4684 9.07099 18.5849 9.11234 18.7005C9.15369 18.816 9.19785 18.9305 9.24482 19.0439C9.29179 19.1573 9.34152 19.2695 9.394 19.3805C9.44648 19.4914 9.50165 19.601 9.55951 19.7093C9.61737 19.8175 9.67785 19.9243 9.74095 20.0296C9.80406 20.1349 9.8697 20.2385 9.9379 20.3406C10.0061 20.4426 10.0767 20.543 10.1499 20.6415C10.223 20.7401 10.2985 20.8369 10.3763 20.9318C10.4542 21.0266 10.5344 21.1195 10.6168 21.2105C10.6992 21.3014 10.7838 21.3903 10.8706 21.4771C10.9574 21.5639 11.0463 21.6485 11.1372 21.7309C11.2282 21.8134 11.3211 21.8935 11.416 21.9714C11.5109 22.0492 11.6076 22.1247 11.7062 22.1979C11.8048 22.271 11.9051 22.3416 12.0071 22.4098C12.1092 22.478 12.2129 22.5437 12.3181 22.6068C12.4234 22.6699 12.5302 22.7304 12.6384 22.7882C12.7467 22.8461 12.8563 22.9012 12.9673 22.9537C13.0782 23.0062 13.1904 23.0559 13.3038 23.1029C13.4172 23.1499 13.5317 23.194 13.6472 23.2354C13.7628 23.2767 13.8793 23.3152 13.9968 23.3509C14.1142 23.3865 14.2325 23.4192 14.3516 23.449C14.4706 23.4789 14.5904 23.5057 14.7107 23.5297C14.8311 23.5536 14.952 23.5746 15.0734 23.5926C15.1949 23.6106 15.3166 23.6257 15.4388 23.6377C15.5609 23.6497 15.6833 23.6587 15.8059 23.6648C15.9285 23.6708 16.0512 23.6738 16.1739 23.6738C16.2967 23.6738 16.4193 23.6708 16.5419 23.6648C16.6645 23.6587 16.7869 23.6497 16.909 23.6377C17.0312 23.6257 17.153 23.6106 17.2744 23.5926C17.3958 23.5746 17.5167 23.5536 17.6371 23.5297C17.7575 23.5057 17.8772 23.4789 17.9963 23.449C18.1153 23.4192 18.2336 23.3865 18.3511 23.3509C18.4685 23.3152 18.585 23.2767 18.7006 23.2354C18.8162 23.194 18.9306 23.1499 19.044 23.1029C19.1574 23.0559 19.2696 23.0062 19.3806 22.9537C19.4915 22.9012 19.6011 22.8461 19.7094 22.7882C19.8176 22.7304 19.9244 22.6699 20.0297 22.6068C20.135 22.5437 20.2386 22.478 20.3407 22.4098C20.4428 22.3416 20.5431 22.271 20.6417 22.1979C20.7402 22.1247 20.837 22.0492 20.9319 21.9714C21.0267 21.8935 21.1197 21.8134 21.2106 21.7309C21.3016 21.6485 21.3904 21.5639 21.4772 21.4771C21.564 21.3903 21.6486 21.3014 21.731 21.2105C21.8135 21.1195 21.8936 21.0266 21.9715 20.9318C22.0494 20.8369 22.1249 20.7401 22.198 20.6415C22.2711 20.543 22.3417 20.4426 22.4099 20.3406C22.4781 20.2385 22.5438 20.1349 22.6069 20.0296C22.67 19.9243 22.7305 19.8175 22.7883 19.7093C22.8462 19.601 22.9014 19.4914 22.9538 19.3805C23.0063 19.2695 23.056 19.1573 23.103 19.0439C23.15 18.9305 23.1941 18.816 23.2355 18.7005C23.2768 18.5849 23.3153 18.4684 23.351 18.3509C23.3866 18.2335 23.4193 18.1152 23.4492 17.9962C23.479 17.8771 23.5059 17.7574 23.5298 17.637C23.5538 17.5166 23.5747 17.3957 23.5927 17.2743C23.6108 17.1529 23.6258 17.0311 23.6378 16.9089C23.6498 16.7868 23.6589 16.6644 23.6649 16.5418C23.6709 16.4192 23.6739 16.2965 23.6739 16.1738C23.6739 16.0511 23.6709 15.9284 23.6649 15.8058C23.6589 15.6832 23.6498 15.5608 23.6378 15.4387C23.6258 15.3165 23.6108 15.1947 23.5927 15.0733C23.5747 14.9519 23.5538 14.831 23.5298 14.7106C23.5059 14.5902 23.479 14.4705 23.4492 14.3515C23.4193 14.2324 23.3866 14.1141 23.351 13.9967C23.3153 13.8792 23.2768 13.7627 23.2355 13.6471C23.1941 13.5316 23.15 13.4171 23.103 13.3037C23.056 13.1903 23.0063 13.0781 22.9538 12.9671C22.9014 12.8562 22.8462 12.7466 22.7883 12.6383C22.7305 12.5301 22.67 12.4233 22.6069 12.318C22.5438 12.2128 22.4781 12.1091 22.4099 12.007C22.3417 11.905 22.2711 11.8047 22.198 11.7061C22.1249 11.6075 22.0494 11.5107 21.9715 11.4159C21.8936 11.321 21.8135 11.2281 21.731 11.1371C21.6486 11.0462 21.564 10.9573 21.4772 10.8705C21.3904 10.7837 21.3016 10.6991 21.2106 10.6167C21.1197 10.5342 21.0267 10.4541 20.9319 10.3762C20.837 10.2984 20.7402 10.2229 20.6417 10.1497C20.5431 10.0766 20.4428 10.006 20.3407 9.93778C20.2386 9.86959 20.135 9.80394 20.0297 9.74084C19.9244 9.67774 19.8176 9.61726 19.7094 9.5594C19.6011 9.50154 19.4915 9.44637 19.3806 9.39389C19.2696 9.34141 19.1574 9.29168 19.044 9.24471C18.9306 9.19774 18.8162 9.15358 18.7006 9.11223C18.585 9.07088 18.4685 9.03238 18.3511 8.99675C18.2336 8.96112 18.1153 8.9284 17.9963 8.89857C17.8772 8.86875 17.7575 8.84186 17.6371 8.81792C17.5167 8.79397 17.3958 8.77299 17.2744 8.75498C17.153 8.73697 17.0312 8.72195 16.909 8.70992C16.7869 8.69789 16.6645 8.68886 16.5419 8.68284C16.4193 8.67682 16.2967 8.67381 16.1739 8.67381ZM16.1739 22.1738C15.9774 22.1738 15.7814 22.1642 15.5858 22.1449C15.3903 22.1257 15.1961 22.0969 15.0034 22.0585C14.8106 22.0202 14.6203 21.9725 14.4322 21.9154C14.2442 21.8584 14.0594 21.7923 13.8778 21.7171C13.6963 21.6419 13.5188 21.558 13.3455 21.4653C13.1722 21.3727 13.0039 21.2718 12.8405 21.1626C12.6771 21.0534 12.5195 20.9365 12.3676 20.8119C12.2157 20.6872 12.0702 20.5554 11.9313 20.4164C11.7923 20.2775 11.6605 20.1321 11.5359 19.9802C11.4112 19.8283 11.2943 19.6706 11.1851 19.5072C11.0759 19.3438 10.975 19.1755 10.8824 19.0022C10.7898 18.8289 10.7058 18.6515 10.6306 18.4699C10.5554 18.2884 10.4893 18.1036 10.4323 17.9155C10.3752 17.7275 10.3275 17.5371 10.2892 17.3443C10.2509 17.1516 10.2221 16.9575 10.2028 16.7619C10.1836 16.5663 10.1739 16.3703 10.1739 16.1738C10.1739 15.9773 10.1836 15.7813 10.2028 15.5857C10.2221 15.3901 10.2509 15.196 10.2892 15.0033C10.3275 14.8105 10.3752 14.6201 10.4323 14.4321C10.4893 14.2441 10.5554 14.0593 10.6306 13.8777C10.7058 13.6962 10.7898 13.5187 10.8824 13.3454C10.975 13.1721 11.0759 13.0038 11.1851 12.8404C11.2943 12.677 11.4112 12.5194 11.5359 12.3674C11.6605 12.2155 11.7923 12.0701 11.9313 11.9312C12.0702 11.7922 12.2157 11.6604 12.3676 11.5357C12.5195 11.4111 12.6771 11.2942 12.8405 11.185C13.0039 11.0758 13.1722 10.9749 13.3455 10.8823C13.5188 10.7896 13.6963 10.7057 13.8778 10.6305C14.0594 10.5553 14.2442 10.4892 14.4322 10.4322C14.6203 10.3751 14.8106 10.3274 15.0034 10.2891C15.1961 10.2508 15.3903 10.222 15.5858 10.2027C15.7814 10.1834 15.9774 10.1738 16.1739 10.1738C16.3704 10.1738 16.5665 10.1834 16.762 10.2027C16.9576 10.222 17.1517 10.2508 17.3445 10.2891C17.5372 10.3274 17.7276 10.3751 17.9156 10.4322C18.1037 10.4892 18.2885 10.5553 18.47 10.6305C18.6516 10.7057 18.829 10.7896 19.0023 10.8823C19.1756 10.9749 19.344 11.0758 19.5073 11.185C19.6707 11.2942 19.8284 11.4111 19.9803 11.5357C20.1322 11.6604 20.2776 11.7922 20.4166 11.9312C20.5555 12.0701 20.6873 12.2155 20.812 12.3674C20.9366 12.5194 21.0536 12.677 21.1627 12.8404C21.2719 13.0038 21.3728 13.1721 21.4654 13.3454C21.5581 13.5187 21.642 13.6962 21.7172 13.8777C21.7924 14.0593 21.8585 14.2441 21.9156 14.4321C21.9726 14.6201 22.0203 14.8105 22.0586 15.0033C22.097 15.196 22.1258 15.3901 22.145 15.5857C22.1643 15.7813 22.1739 15.9773 22.1739 16.1738C22.1739 16.3703 22.1643 16.5663 22.145 16.7619C22.1258 16.9575 22.097 17.1516 22.0586 17.3443C22.0203 17.5371 21.9726 17.7275 21.9156 17.9155C21.8585 18.1036 21.7924 18.2884 21.7172 18.4699C21.642 18.6515 21.5581 18.8289 21.4654 19.0022C21.3728 19.1755 21.2719 19.3438 21.1627 19.5072C21.0536 19.6706 20.9366 19.8283 20.812 19.9802C20.6873 20.1321 20.5555 20.2775 20.4166 20.4164C20.2776 20.5554 20.1322 20.6872 19.9803 20.8119C19.8284 20.9365 19.6707 21.0534 19.5073 21.1626C19.344 21.2718 19.1756 21.3727 19.0023 21.4653C18.829 21.558 18.6516 21.6419 18.47 21.7171C18.2885 21.7923 18.1037 21.8584 17.9156 21.9154C17.7276 21.9725 17.5372 22.0202 17.3445 22.0585C17.1517 22.0969 16.9576 22.1257 16.762 22.1449C16.5665 22.1642 16.3704 22.1738 16.1739 22.1738Z" fill="rgb(51,51,51)" fill-rule="nonzero" />
	<path id="path" d="M14.6594 5.82055C14.6498 5.77225 14.6357 5.72542 14.6169 5.67992C14.598 5.63442 14.5749 5.59145 14.5476 5.55051C14.5202 5.50956 14.4891 5.47222 14.4543 5.43739C14.4195 5.40257 14.3816 5.371 14.3407 5.34364C14.2998 5.31628 14.2565 5.2932 14.211 5.27435C14.1655 5.25551 14.1184 5.24116 14.0701 5.23155C14.0219 5.22194 13.9732 5.21729 13.9239 5.21729L4.92392 5.21729C4.87467 5.21729 4.82599 5.22194 4.77769 5.23155C4.72939 5.24116 4.68231 5.25551 4.63681 5.27435C4.59131 5.2932 4.54809 5.31628 4.50714 5.34364C4.46619 5.371 4.42834 5.40257 4.39352 5.43739C4.3587 5.47222 4.32764 5.50956 4.30028 5.55051C4.27292 5.59145 4.24983 5.63442 4.23098 5.67992C4.21214 5.72542 4.19805 5.77225 4.18844 5.82055C4.17883 5.86885 4.17392 5.91804 4.17392 5.96729C4.17392 6.01653 4.17883 6.06572 4.18844 6.11402C4.19805 6.16232 4.21214 6.20915 4.23098 6.25465C4.24983 6.30015 4.27292 6.34312 4.30028 6.38407C4.32764 6.42501 4.3587 6.46235 4.39352 6.49718C4.42834 6.532 4.46619 6.56357 4.50714 6.59093C4.54809 6.61829 4.59131 6.64137 4.63681 6.66022C4.68231 6.67907 4.72939 6.69341 4.77769 6.70302C4.82599 6.71263 4.87467 6.71729 4.92392 6.71729L13.9239 6.71729C13.9732 6.71729 14.0219 6.71263 14.0701 6.70302C14.1184 6.69341 14.1655 6.67907 14.211 6.66022C14.2565 6.64137 14.2998 6.61829 14.3407 6.59093C14.3816 6.56357 14.4195 6.532 14.4543 6.49718C14.4891 6.46235 14.5202 6.42501 14.5476 6.38407C14.5749 6.34312 14.598 6.30015 14.6169 6.25465C14.6357 6.20915 14.6498 6.16232 14.6594 6.11402C14.669 6.06572 14.6739 6.01653 14.6739 5.96729C14.6739 5.91804 14.669 5.86885 14.6594 5.82055ZM8.6594 11.8205C8.64979 11.7722 8.6357 11.7254 8.61685 11.6799C8.59801 11.6344 8.57492 11.5915 8.54756 11.5505C8.5202 11.5096 8.48914 11.4722 8.45432 11.4374C8.4195 11.4026 8.38165 11.371 8.3407 11.3436C8.29975 11.3163 8.25653 11.2932 8.21103 11.2744C8.16553 11.2555 8.11845 11.2412 8.07015 11.2316C8.02185 11.2219 7.97317 11.2173 7.92392 11.2173L4.92392 11.2173C4.87467 11.2173 4.82599 11.2219 4.77769 11.2316C4.72939 11.2412 4.68231 11.2555 4.63681 11.2744C4.59131 11.2932 4.54809 11.3163 4.50714 11.3436C4.46619 11.371 4.42834 11.4026 4.39352 11.4374C4.3587 11.4722 4.32764 11.5096 4.30028 11.5505C4.27292 11.5915 4.24983 11.6344 4.23098 11.6799C4.21214 11.7254 4.19805 11.7722 4.18844 11.8205C4.17883 11.8688 4.17392 11.918 4.17392 11.9673C4.17392 12.0165 4.17883 12.0657 4.18844 12.114C4.19805 12.1623 4.21214 12.2092 4.23098 12.2546C4.24983 12.3001 4.27292 12.3431 4.30028 12.3841C4.32764 12.425 4.3587 12.4624 4.39352 12.4972C4.42834 12.532 4.46619 12.5636 4.50714 12.5909C4.54809 12.6183 4.59131 12.6414 4.63681 12.6602C4.68231 12.6791 4.72939 12.6934 4.77769 12.703C4.82599 12.7126 4.87467 12.7173 4.92392 12.7173L7.92392 12.7173C7.97317 12.7173 8.02185 12.7126 8.07015 12.703C8.11845 12.6934 8.16553 12.6791 8.21103 12.6602C8.25653 12.6414 8.29975 12.6183 8.3407 12.5909C8.38165 12.5636 8.4195 12.532 8.45432 12.4972C8.48914 12.4624 8.5202 12.425 8.54756 12.3841C8.57492 12.3431 8.59801 12.3001 8.61685 12.2546C8.6357 12.2092 8.64979 12.1623 8.6594 12.114C8.66901 12.0657 8.67392 12.0165 8.67392 11.9673C8.67392 11.918 8.66901 11.8688 8.6594 11.8205ZM4.7776 16.1882C4.7293 16.1978 4.6824 16.2121 4.63691 16.2309C4.59141 16.2497 4.54819 16.2728 4.50724 16.3002C4.4663 16.3276 4.42841 16.3587 4.39359 16.3935C4.35877 16.4283 4.32768 16.4662 4.30032 16.5071C4.27296 16.5481 4.24986 16.5913 4.23101 16.6368C4.21216 16.6823 4.19794 16.7292 4.18833 16.7775C4.17872 16.8258 4.17392 16.8746 4.17392 16.9238C4.17392 16.9731 4.17872 17.0218 4.18833 17.0701C4.19794 17.1184 4.21216 17.1653 4.23101 17.2108C4.24986 17.2563 4.27296 17.2995 4.30032 17.3405C4.32768 17.3814 4.35877 17.4193 4.39359 17.4541C4.42841 17.489 4.4663 17.52 4.50724 17.5474C4.54819 17.5748 4.59141 17.5979 4.63691 17.6167C4.6824 17.6356 4.7293 17.6498 4.7776 17.6594C4.8259 17.669 4.87467 17.6738 4.92392 17.6738L6.42392 17.6738C6.47317 17.6738 6.52194 17.669 6.57024 17.6594C6.61854 17.6498 6.66543 17.6356 6.71093 17.6167C6.75643 17.5979 6.79965 17.5748 6.8406 17.5474C6.88154 17.52 6.91943 17.489 6.95425 17.4541C6.98907 17.4193 7.02016 17.3814 7.04752 17.3405C7.07488 17.2995 7.09798 17.2563 7.11683 17.2108C7.13567 17.1653 7.1499 17.1184 7.15951 17.0701C7.16912 17.0218 7.17392 16.9731 7.17392 16.9238C7.17392 16.8746 7.16912 16.8258 7.15951 16.7775C7.1499 16.7292 7.13567 16.6823 7.11683 16.6368C7.09798 16.5913 7.07488 16.5481 7.04752 16.5071C7.02016 16.4662 6.98907 16.4283 6.95425 16.3935C6.91943 16.3587 6.88154 16.3276 6.8406 16.3002C6.79965 16.2728 6.75643 16.2497 6.71093 16.2309C6.66543 16.2121 6.61854 16.1978 6.57024 16.1882C6.52194 16.1786 6.47317 16.1738 6.42392 16.1738L4.92392 16.1738C4.87467 16.1738 4.8259 16.1786 4.7776 16.1882ZM15.8059 8.68284C15.6833 8.68886 15.5609 8.69789 15.4388 8.70992C15.3166 8.72195 15.1949 8.73697 15.0734 8.75498C14.952 8.77299 14.8311 8.79397 14.7107 8.81792C14.5904 8.84186 14.4706 8.86875 14.3516 8.89857C14.2325 8.9284 14.1142 8.96112 13.9968 8.99675C13.8793 9.03238 13.7628 9.07088 13.6472 9.11223C13.5317 9.15358 13.4172 9.19774 13.3038 9.24471C13.1904 9.29168 13.0782 9.34141 12.9673 9.39389C12.8563 9.44637 12.7467 9.50154 12.6384 9.5594C12.5302 9.61726 12.4234 9.67774 12.3181 9.74084C12.2129 9.80394 12.1092 9.86959 12.0071 9.93778C11.9051 10.006 11.8048 10.0766 11.7062 10.1497C11.6076 10.2229 11.5109 10.2984 11.416 10.3762C11.3211 10.4541 11.2282 10.5342 11.1372 10.6167C11.0463 10.6991 10.9574 10.7837 10.8706 10.8705C10.7838 10.9573 10.6992 11.0462 10.6168 11.1371C10.5344 11.2281 10.4542 11.321 10.3763 11.4159C10.2985 11.5107 10.223 11.6075 10.1499 11.7061C10.0767 11.8047 10.0061 11.905 9.9379 12.007C9.8697 12.1091 9.80406 12.2128 9.74095 12.318C9.67785 12.4233 9.61737 12.5301 9.55951 12.6383C9.50165 12.7466 9.44648 12.8562 9.394 12.9671C9.34152 13.0781 9.29179 13.1903 9.24482 13.3037C9.19785 13.4171 9.15369 13.5316 9.11234 13.6471C9.07099 13.7627 9.0325 13.8792 8.99687 13.9967C8.96124 14.1141 8.92851 14.2324 8.89868 14.3515C8.86886 14.4705 8.84198 14.5902 8.81803 14.7106C8.79408 14.831 8.77311 14.9519 8.7551 15.0733C8.73709 15.1947 8.72206 15.3165 8.71003 15.4387C8.698 15.5608 8.68898 15.6832 8.68295 15.8058C8.67693 15.9284 8.67392 16.0511 8.67392 16.1738C8.67392 16.2965 8.67693 16.4192 8.68295 16.5418C8.68898 16.6644 8.698 16.7868 8.71003 16.9089C8.72206 17.0311 8.73709 17.1529 8.7551 17.2743C8.77311 17.3957 8.79408 17.5166 8.81803 17.637C8.84198 17.7574 8.86886 17.8771 8.89868 17.9962C8.92851 18.1152 8.96124 18.2335 8.99687 18.3509C9.0325 18.4684 9.07099 18.5849 9.11234 18.7005C9.15369 18.816 9.19785 18.9305 9.24482 19.0439C9.29179 19.1573 9.34152 19.2695 9.394 19.3805C9.44648 19.4914 9.50165 19.601 9.55951 19.7093C9.61737 19.8175 9.67785 19.9243 9.74095 20.0296C9.80406 20.1349 9.8697 20.2385 9.9379 20.3406C10.0061 20.4426 10.0767 20.543 10.1499 20.6415C10.223 20.7401 10.2985 20.8369 10.3763 20.9318C10.4542 21.0266 10.5344 21.1195 10.6168 21.2105C10.6992 21.3014 10.7838 21.3903 10.8706 21.4771C10.9574 21.5639 11.0463 21.6485 11.1372 21.7309C11.2282 21.8134 11.3211 21.8935 11.416 21.9714C11.5109 22.0492 11.6076 22.1247 11.7062 22.1979C11.8048 22.271 11.9051 22.3416 12.0071 22.4098C12.1092 22.478 12.2129 22.5437 12.3181 22.6068C12.4234 22.6699 12.5302 22.7304 12.6384 22.7882C12.7467 22.8461 12.8563 22.9012 12.9673 22.9537C13.0782 23.0062 13.1904 23.0559 13.3038 23.1029C13.4172 23.1499 13.5317 23.194 13.6472 23.2354C13.7628 23.2767 13.8793 23.3152 13.9968 23.3509C14.1142 23.3865 14.2325 23.4192 14.3516 23.449C14.4706 23.4789 14.5904 23.5057 14.7107 23.5297C14.8311 23.5536 14.952 23.5746 15.0734 23.5926C15.1949 23.6106 15.3166 23.6257 15.4388 23.6377C15.5609 23.6497 15.6833 23.6587 15.8059 23.6648C15.9285 23.6708 16.0512 23.6738 16.1739 23.6738C16.2967 23.6738 16.4193 23.6708 16.5419 23.6648C16.6645 23.6587 16.7869 23.6497 16.909 23.6377C17.0312 23.6257 17.153 23.6106 17.2744 23.5926C17.3958 23.5746 17.5167 23.5536 17.6371 23.5297C17.7575 23.5057 17.8772 23.4789 17.9963 23.449C18.1153 23.4192 18.2336 23.3865 18.3511 23.3509C18.4685 23.3152 18.585 23.2767 18.7006 23.2354C18.8162 23.194 18.9306 23.1499 19.044 23.1029C19.1574 23.0559 19.2696 23.0062 19.3806 22.9537C19.4915 22.9012 19.6011 22.8461 19.7094 22.7882C19.8176 22.7304 19.9244 22.6699 20.0297 22.6068C20.135 22.5437 20.2386 22.478 20.3407 22.4098C20.4428 22.3416 20.5431 22.271 20.6417 22.1979C20.7402 22.1247 20.837 22.0492 20.9319 21.9714C21.0267 21.8935 21.1197 21.8134 21.2106 21.7309C21.3016 21.6485 21.3904 21.5639 21.4772 21.4771C21.564 21.3903 21.6486 21.3014 21.731 21.2105C21.8135 21.1195 21.8936 21.0266 21.9715 20.9318C22.0494 20.8369 22.1249 20.7401 22.198 20.6415C22.2711 20.543 22.3417 20.4426 22.4099 20.3406C22.4781 20.2385 22.5438 20.1349 22.6069 20.0296C22.67 19.9243 22.7305 19.8175 22.7883 19.7093C22.8462 19.601 22.9014 19.4914 22.9538 19.3805C23.0063 19.2695 23.056 19.1573 23.103 19.0439C23.15 18.9305 23.1941 18.816 23.2355 18.7005C23.2768 18.5849 23.3153 18.4684 23.351 18.3509C23.3866 18.2335 23.4193 18.1152 23.4492 17.9962C23.479 17.8771 23.5059 17.7574 23.5298 17.637C23.5538 17.5166 23.5747 17.3957 23.5927 17.2743C23.6108 17.1529 23.6258 17.0311 23.6378 16.9089C23.6498 16.7868 23.6589 16.6644 23.6649 16.5418C23.6709 16.4192 23.6739 16.2965 23.6739 16.1738C23.6739 16.0511 23.6709 15.9284 23.6649 15.8058C23.6589 15.6832 23.6498 15.5608 23.6378 15.4387C23.6258 15.3165 23.6108 15.1947 23.5927 15.0733C23.5747 14.9519 23.5538 14.831 23.5298 14.7106C23.5059 14.5902 23.479 14.4705 23.4492 14.3515C23.4193 14.2324 23.3866 14.1141 23.351 13.9967C23.3153 13.8792 23.2768 13.7627 23.2355 13.6471C23.1941 13.5316 23.15 13.4171 23.103 13.3037C23.056 13.1903 23.0063 13.0781 22.9538 12.9671C22.9014 12.8562 22.8462 12.7466 22.7883 12.6383C22.7305 12.5301 22.67 12.4233 22.6069 12.318C22.5438 12.2128 22.4781 12.1091 22.4099 12.007C22.3417 11.905 22.2711 11.8047 22.198 11.7061C22.1249 11.6075 22.0494 11.5107 21.9715 11.4159C21.8936 11.321 21.8135 11.2281 21.731 11.1371C21.6486 11.0462 21.564 10.9573 21.4772 10.8705C21.3904 10.7837 21.3016 10.6991 21.2106 10.6167C21.1197 10.5342 21.0267 10.4541 20.9319 10.3762C20.837 10.2984 20.7402 10.2229 20.6417 10.1497C20.5431 10.0766 20.4428 10.006 20.3407 9.93778C20.2386 9.86959 20.135 9.80394 20.0297 9.74084C19.9244 9.67774 19.8176 9.61726 19.7094 9.5594C19.6011 9.50154 19.4915 9.44637 19.3806 9.39389C19.2696 9.34141 19.1574 9.29168 19.044 9.24471C18.9306 9.19774 18.8162 9.15358 18.7006 9.11223C18.585 9.07088 18.4685 9.03238 18.3511 8.99675C18.2336 8.96112 18.1153 8.9284 17.9963 8.89857C17.8772 8.86875 17.7575 8.84186 17.6371 8.81792C17.5167 8.79397 17.3958 8.77299 17.2744 8.75498C17.153 8.73697 17.0312 8.72195 16.909 8.70992C16.7869 8.69789 16.6645 8.68886 16.5419 8.68284C16.4193 8.67682 16.2967 8.67381 16.1739 8.67381C16.0512 8.67381 15.9285 8.67682 15.8059 8.68284ZM15.5858 22.1449C15.3903 22.1257 15.1961 22.0969 15.0034 22.0585C14.8106 22.0202 14.6203 21.9725 14.4322 21.9154C14.2442 21.8584 14.0594 21.7923 13.8778 21.7171C13.6963 21.6419 13.5188 21.558 13.3455 21.4653C13.1722 21.3727 13.0039 21.2718 12.8405 21.1626C12.6771 21.0534 12.5195 20.9365 12.3676 20.8119C12.2157 20.6872 12.0702 20.5554 11.9313 20.4164C11.7923 20.2775 11.6605 20.1321 11.5359 19.9802C11.4112 19.8283 11.2943 19.6706 11.1851 19.5072C11.0759 19.3438 10.975 19.1755 10.8824 19.0022C10.7898 18.8289 10.7058 18.6515 10.6306 18.4699C10.5554 18.2884 10.4893 18.1036 10.4323 17.9155C10.3752 17.7275 10.3275 17.5371 10.2892 17.3443C10.2509 17.1516 10.2221 16.9575 10.2028 16.7619C10.1836 16.5663 10.1739 16.3703 10.1739 16.1738C10.1739 15.9773 10.1836 15.7813 10.2028 15.5857C10.2221 15.3901 10.2509 15.196 10.2892 15.0033C10.3275 14.8105 10.3752 14.6201 10.4323 14.4321C10.4893 14.2441 10.5554 14.0593 10.6306 13.8777C10.7058 13.6962 10.7898 13.5187 10.8824 13.3454C10.975 13.1721 11.0759 13.0038 11.1851 12.8404C11.2943 12.677 11.4112 12.5194 11.5359 12.3674C11.6605 12.2155 11.7923 12.0701 11.9313 11.9312C12.0702 11.7922 12.2157 11.6604 12.3676 11.5357C12.5195 11.4111 12.6771 11.2942 12.8405 11.185C13.0039 11.0758 13.1722 10.9749 13.3455 10.8823C13.5188 10.7896 13.6963 10.7057 13.8778 10.6305C14.0594 10.5553 14.2442 10.4892 14.4322 10.4322C14.6203 10.3751 14.8106 10.3274 15.0034 10.2891C15.1961 10.2508 15.3903 10.222 15.5858 10.2027C15.7814 10.1834 15.9774 10.1738 16.1739 10.1738C16.3704 10.1738 16.5665 10.1834 16.762 10.2027C16.9576 10.222 17.1517 10.2508 17.3445 10.2891C17.5372 10.3274 17.7276 10.3751 17.9156 10.4322C18.1037 10.4892 18.2885 10.5553 18.47 10.6305C18.6516 10.7057 18.829 10.7896 19.0023 10.8823C19.1756 10.9749 19.344 11.0758 19.5073 11.185C19.6707 11.2942 19.8284 11.4111 19.9803 11.5357C20.1322 11.6604 20.2776 11.7922 20.4166 11.9312C20.5555 12.0701 20.6873 12.2155 20.812 12.3674C20.9366 12.5194 21.0536 12.677 21.1627 12.8404C21.2719 13.0038 21.3728 13.1721 21.4654 13.3454C21.5581 13.5187 21.642 13.6962 21.7172 13.8777C21.7924 14.0593 21.8585 14.2441 21.9156 14.4321C21.9726 14.6201 22.0203 14.8105 22.0586 15.0033C22.097 15.196 22.1258 15.3901 22.145 15.5857C22.1643 15.7813 22.1739 15.9773 22.1739 16.1738C22.1739 16.3703 22.1643 16.5663 22.145 16.7619C22.1258 16.9575 22.097 17.1516 22.0586 17.3443C22.0203 17.5371 21.9726 17.7275 21.9156 17.9155C21.8585 18.1036 21.7924 18.2884 21.7172 18.4699C21.642 18.6515 21.5581 18.8289 21.4654 19.0022C21.3728 19.1755 21.2719 19.3438 21.1627 19.5072C21.0536 19.6706 20.9366 19.8283 20.812 19.9802C20.6873 20.1321 20.5555 20.2775 20.4166 20.4164C20.2776 20.5554 20.1322 20.6872 19.9803 20.8119C19.8284 20.9365 19.6707 21.0534 19.5073 21.1626C19.344 21.2718 19.1756 21.3727 19.0023 21.4653C18.829 21.558 18.6516 21.6419 18.47 21.7171C18.2885 21.7923 18.1037 21.8584 17.9156 21.9154C17.7276 21.9725 17.5372 22.0202 17.3445 22.0585C17.1517 22.0969 16.9576 22.1257 16.762 22.1449C16.5665 22.1642 16.3704 22.1738 16.1739 22.1738C15.9774 22.1738 15.7814 22.1642 15.5858 22.1449Z" fill-rule="nonzero" stroke="rgb(51,51,51)" stroke-width="0.300000012" />
	<path id="path" d="M1.49068 22.5652L1.49068 2.47824L19.3789 2.47824L19.3789 7.19867C19.3043 8.34781 20.8696 8.34781 20.8696 7.75824L20.8696 2.47824C20.8696 2.38403 20.86 2.29073 20.8409 2.19833C20.8218 2.10593 20.7935 2.01621 20.7561 1.92917C20.7186 1.84213 20.6727 1.75945 20.6183 1.68112C20.564 1.60279 20.5022 1.53031 20.433 1.4637C20.3637 1.39708 20.2884 1.3376 20.2071 1.28526C20.1257 1.23292 20.0398 1.18873 19.9493 1.15267C19.8589 1.11662 19.7657 1.08941 19.6697 1.07103C19.5737 1.05265 19.4768 1.04346 19.3789 1.04346L1.49068 1.04346C1.3928 1.04346 1.29586 1.05265 1.19987 1.07103C1.10387 1.08941 1.01065 1.11662 0.920223 1.15267C0.829794 1.18873 0.743888 1.23292 0.662504 1.28526C0.58112 1.3376 0.505822 1.39708 0.436611 1.4637C0.3674 1.53031 0.305604 1.60279 0.251225 1.68112C0.196846 1.75945 0.150928 1.84213 0.113472 1.92917C0.0760146 2.01621 0.0477384 2.10593 0.0286431 2.19833C0.00954768 2.29073 0 2.38403 0 2.47824L0 22.5652C0 22.6594 0.00954768 22.7527 0.0286431 22.8451C0.0477384 22.9375 0.0760146 23.0272 0.113471 23.1143C0.150928 23.2013 0.196846 23.284 0.251225 23.3623C0.305604 23.4407 0.3674 23.5131 0.436611 23.5797C0.505822 23.6464 0.58112 23.7058 0.662504 23.7582C0.743888 23.8105 0.829794 23.8547 0.920223 23.8908C1.01065 23.9268 1.10387 23.954 1.19987 23.9724C1.29586 23.9908 1.3928 24 1.49068 24L8.34783 24C9.23401 23.9382 9.59851 23.6125 9.59859 23.2694C9.59867 22.9565 9.3913 22.5652 8.88459 22.5652L1.49068 22.5652Z" fill="rgb(51,51,51)" fill-rule="nonzero" />
	<path id="path" d="M1.49068 2.47824L19.3789 2.47824L19.3789 7.19867C19.3043 8.34781 20.8696 8.34781 20.8696 7.75824L20.8696 2.47824C20.8696 2.38403 20.86 2.29073 20.8409 2.19833C20.8218 2.10593 20.7935 2.01621 20.7561 1.92917C20.7186 1.84213 20.6727 1.75945 20.6183 1.68112C20.564 1.60279 20.5022 1.53031 20.433 1.4637C20.3637 1.39708 20.2884 1.3376 20.2071 1.28526C20.1257 1.23292 20.0398 1.18873 19.9493 1.15267C19.8589 1.11662 19.7657 1.08941 19.6697 1.07103C19.5737 1.05265 19.4768 1.04346 19.3789 1.04346L1.49068 1.04346C1.3928 1.04346 1.29586 1.05265 1.19987 1.07103C1.10387 1.08941 1.01065 1.11662 0.920223 1.15267C0.829794 1.18873 0.743888 1.23292 0.662504 1.28526C0.58112 1.3376 0.505822 1.39708 0.436611 1.4637C0.3674 1.53031 0.305604 1.60279 0.251225 1.68112C0.196846 1.75945 0.150928 1.84213 0.113472 1.92917C0.0760146 2.01621 0.0477384 2.10593 0.0286431 2.19833C0.00954768 2.29073 0 2.38403 0 2.47824L0 22.5652C0 22.6594 0.00954768 22.7527 0.0286431 22.8451C0.0477384 22.9375 0.0760146 23.0272 0.113471 23.1143C0.150928 23.2013 0.196846 23.284 0.251225 23.3623C0.305604 23.4407 0.3674 23.5131 0.436611 23.5797C0.505822 23.6464 0.58112 23.7058 0.662504 23.7582C0.743888 23.8105 0.829794 23.8547 0.920223 23.8908C1.01065 23.9268 1.10387 23.954 1.19987 23.9724C1.29586 23.9908 1.3928 24 1.49068 24L8.34783 24C9.23401 23.9382 9.59851 23.6125 9.59859 23.2694C9.59867 22.9565 9.3913 22.5652 8.88459 22.5652L1.49068 22.5652L1.49068 2.47824Z" fill-rule="nonzero" stroke="rgb(51,51,51)" stroke-width="0.400000006" />
	<path id="path" d="M17.3733 14.4333L15.9783 11.4783L14.5833 14.4333L11.4783 14.9133L13.7283 17.2233L13.2033 20.4783L15.9783 18.9333L18.7533 20.4783L18.2283 17.2233L20.4783 14.9133L17.3733 14.4333Z" fill="rgb(6,148,86)" fill-rule="nonzero" />
</svg>
