<svg viewBox="0 0 67.1989 14.0112" xmlns="http://www.w3.org/2000/svg" xmlns:xlink="http://www.w3.org/1999/xlink" width="67.1988525" height="14.0112305" fill="none" customFrame="#000000">
	<g id="组合 27" opacity="0.629999995">
		<g id="组合 21">
			<g id="组合 19">
				<rect id="矩形 48" width="14.1513691" height="14.0111084" x="0.33694458" y="0" rx="5.98496246" fill="rgb(255,255,255)" fill-opacity="0" />
				<g id="组合 1">
					<ellipse id="椭圆 41" rx="1.3550272" ry="1.34159732" cx="12.934495" cy="6.9277792" fill="rgb(255,255,254.745)" />
					<ellipse id="椭圆 16" rx="1.3550272" ry="1.34159732" cx="1.3550272" cy="6.9277792" fill="rgb(254.747,255,254.745)" />
					<path id="合并" d="M3.14878 2.00171L7.13995 2.00171C7.13995 2.83696 6.45608 3.51405 5.61246 3.51405L3.44442 3.51405C3.03622 3.51405 2.70531 3.84168 2.70531 4.24584L2.70531 9.3683C2.70531 9.90716 3.14651 10.344 3.69079 10.344L7.13995 10.344C7.13995 11.1793 6.45608 11.8563 5.61246 11.8563L3.14878 11.8563C2.06023 11.8563 1.17783 10.9827 1.17783 9.90494L1.17783 3.95312C1.17783 2.87538 2.06023 2.00171 3.14878 2.00171ZM8.66743 2.00171L11.1311 2.00171C12.2197 2.00171 13.1021 2.87538 13.1021 3.95312L13.1021 9.90494C13.1021 10.9827 12.2197 11.8563 11.1311 11.8563L7.13995 11.8563C7.13995 11.0211 7.82381 10.344 8.66743 10.344L10.8355 10.344C11.2437 10.344 11.5746 10.0164 11.5746 9.61222L11.5746 4.24584C11.5746 3.84168 11.2437 3.51405 10.8355 3.51405L7.13995 3.51405C7.13995 2.67881 7.82381 2.00171 8.66743 2.00171Z" fill="rgb(254.747,255,254.745)" fill-rule="evenodd" />
					<path id="矢量 32 (边框)" d="M7.09336 7.77344L6.63411 8.22816C6.4503 8.41013 6.24746 8.54658 6.02559 8.63752C5.80397 8.72835 5.56336 8.77377 5.30376 8.77377C5.044 8.77377 4.80325 8.7283 4.58154 8.63737C4.35981 8.54644 4.1571 8.41004 3.97342 8.22816C3.78981 8.04639 3.65209 7.84579 3.56025 7.62637C3.46835 7.40678 3.42239 7.16834 3.42239 6.91105C3.42239 6.65388 3.46831 6.41553 3.56015 6.19602C3.652 5.97647 3.78978 5.77575 3.9735 5.59387C4.15707 5.41211 4.35966 5.27576 4.58126 5.18484C4.80305 5.09384 5.04388 5.04834 5.30376 5.04834C5.56347 5.04834 5.80417 5.09379 6.02586 5.18469C6.24761 5.27561 6.45034 5.41201 6.63405 5.59388L7.96432 6.91105L7.09336 7.77344ZM4.8445 6.45632C4.91763 6.38391 5.00386 6.33238 5.09564 6.30173C5.31995 6.22681 5.5774 6.2766 5.75771 6.45111C5.75949 6.45284 5.76127 6.45458 5.76304 6.45633L6.22229 6.91105L5.76304 7.36578C5.76127 7.36753 5.75949 7.36927 5.75771 7.371C5.5774 7.54551 5.31995 7.5953 5.09564 7.52038C5.00386 7.48973 4.91763 7.4382 4.8445 7.36578C4.59082 7.11464 4.59082 6.70747 4.8445 6.45632Z" fill="rgb(255,255,254.745)" fill-rule="evenodd" />
					<path id="矢量 32 (边框)" d="M6.19089 6.91105L7.52116 5.59388C7.70487 5.41201 7.9076 5.27561 8.12935 5.18469C8.35104 5.09379 8.59174 5.04834 8.85145 5.04834C9.11133 5.04834 9.35216 5.09384 9.57395 5.18484C9.79555 5.27576 9.99814 5.41211 10.1817 5.59387C10.3654 5.77575 10.5032 5.97647 10.5951 6.19602C10.6869 6.41553 10.7328 6.65388 10.7328 6.91105C10.7328 7.16834 10.6869 7.40678 10.595 7.62637C10.5031 7.84579 10.3654 8.04639 10.1818 8.22816C9.9981 8.41004 9.7954 8.54644 9.57367 8.63737C9.35195 8.7283 9.11121 8.77377 8.85145 8.77377C8.59185 8.77377 8.35124 8.72835 8.12962 8.63752C7.90775 8.54658 7.7049 8.41013 7.52109 8.22816L7.06185 7.77344L6.19089 6.91105ZM8.39217 6.45633C8.39394 6.45458 8.39572 6.45284 8.3975 6.45111C8.57781 6.2766 8.83525 6.22681 9.05956 6.30173C9.15134 6.33238 9.23758 6.38391 9.31071 6.45632C9.56439 6.70747 9.56439 7.11464 9.31071 7.36578C9.23758 7.4382 9.15134 7.48973 9.05956 7.52038C8.83525 7.5953 8.57781 7.54551 8.3975 7.371C8.39572 7.36927 8.39394 7.36753 8.39217 7.36578L7.93292 6.91105L8.39217 6.45633Z" fill="rgb(255,255,254.745)" fill-rule="evenodd" />
				</g>
			</g>
		</g>
		<path id="LawOnGo" d="M41.5946 2.86475C42.3101 2.86475 42.9677 3.03175 43.5674 3.36577C44.1688 3.69978 44.6414 4.16127 44.9853 4.75023Q45.2157 5.14384 45.3432 5.56837Q45.5011 6.09407 45.5011 6.66718C45.5011 7.3578 45.3308 7.99759 44.9902 8.58655C44.6496 9.1739 44.1818 9.63619 43.587 9.97343C42.9937 10.3107 42.3484 10.4793 41.6508 10.4793C40.9533 10.4793 40.3038 10.3123 39.7025 9.97827Q39.1961 9.69705 38.813 9.29764Q38.5136 8.98546 38.2895 8.60107Q38.0735 8.22791 37.9493 7.82635Q37.781 7.28248 37.781 6.68654C37.781 5.99592 37.9505 5.35533 38.2895 4.76475C38.6301 4.17256 39.0954 3.70785 39.6853 3.37061C40.2769 3.03337 40.9134 2.86475 41.5946 2.86475ZM60.4304 6.75189C60.4108 7.9282 60.0653 8.84391 59.3938 9.49903Q59.1548 9.73169 58.8801 9.90912Q57.9973 10.4793 56.7463 10.4793C55.4898 10.4793 54.4875 10.0977 53.7394 9.33445C52.993 8.57122 52.6198 7.67729 52.6198 6.65266C52.6198 5.62802 52.993 4.74055 53.7394 3.99023Q54.0961 3.63248 54.5185 3.38845Q55.4249 2.86475 56.6339 2.86475C57.276 2.86475 57.8725 2.98254 58.4233 3.21812C58.9742 3.45209 59.5128 3.81031 60.0392 4.29278L59.3792 4.91724C58.9717 4.52675 58.5309 4.22743 58.0566 4.01927C57.5824 3.81112 57.0951 3.70704 56.5947 3.70704C56.0944 3.70704 55.5973 3.83936 55.1035 4.10399C54.6097 4.36862 54.2226 4.72603 53.9423 5.17622C53.662 5.6248 53.5219 6.11049 53.5219 6.63329Q53.5219 7.12167 53.67 7.55999Q53.8918 8.21654 54.4459 8.76082C55.0636 9.3643 55.8369 9.66604 56.7659 9.66604C57.4536 9.66604 58.0477 9.47967 58.548 9.10693C59.0483 8.73258 59.3555 8.22188 59.4696 7.57482L57.1863 7.57482L57.1863 6.75189L60.4304 6.75189ZM21.9406 10.3002L18.3055 10.3002L18.3055 3.04385L19.1757 3.04385L19.1757 9.47725L21.9406 9.47725L21.9406 10.3002ZM41.6264 9.64668C42.4608 9.64668 43.1665 9.36591 43.7434 8.80438Q44.1063 8.45122 44.317 8.02316Q44.6088 7.4303 44.6088 6.6938C44.6088 5.84667 44.3163 5.13588 43.7312 4.56144Q43.2933 4.12913 42.7667 3.91311Q42.2408 3.69736 41.6264 3.69736C40.7838 3.69736 40.0806 3.987 39.5167 4.56628Q39.1339 4.95839 38.9244 5.42782Q38.6708 5.99576 38.6708 6.67686C38.6708 7.50625 38.9609 8.20897 39.5411 8.78502C40.1229 9.35946 40.818 9.64668 41.6264 9.64668ZM28.2584 10.3002L27.4467 10.3002L27.4467 9.50872Q26.8291 10.1805 26.0827 10.3873Q25.7507 10.4793 25.3933 10.4793C24.6191 10.4793 23.9566 10.1969 23.4058 9.63216C22.8549 9.0674 22.5795 8.39372 22.5795 7.61113Q22.5795 7.02916 22.783 6.53013Q22.9907 6.0205 23.4107 5.59737Q23.8079 5.19714 24.2883 4.98818Q24.8132 4.75991 25.4373 4.75991C26.2358 4.75991 26.9057 5.08021 27.4467 5.72081L27.4467 4.89787L28.2584 4.89787L28.2584 10.3002ZM51.4694 10.3002L50.6481 10.3002L50.6481 7.72247C50.6481 7.12867 50.6195 6.72446 50.5625 6.50985C50.5055 6.29363 50.4215 6.1113 50.3107 5.96285C50.2015 5.81439 50.0614 5.70386 49.8902 5.63125C49.7207 5.55864 49.5138 5.52233 49.2693 5.52233C49.0265 5.52233 48.7877 5.58204 48.553 5.70144C48.32 5.81924 48.1195 5.98463 47.9516 6.19762C47.7854 6.409 47.6705 6.63329 47.607 6.87049Q47.5141 7.22629 47.5141 8.29852L47.5141 10.3002L46.6829 10.3002L46.6829 4.89787L47.5141 4.89787L47.5141 5.71112Q48.0495 5.0817 48.7177 4.86877Q49.0592 4.75991 49.4355 4.75991C49.8299 4.75991 50.1868 4.86076 50.5063 5.06246C50.8273 5.26255 51.0677 5.54008 51.2274 5.89507C51.3888 6.24845 51.4694 6.79143 51.4694 7.524L51.4694 10.3002ZM64.1137 4.75991C64.9025 4.75991 65.5723 5.04068 66.1232 5.60221C66.674 6.16374 66.9494 6.83822 66.9494 7.62565Q66.9494 8.23112 66.734 8.74654Q66.53 9.23455 66.1329 9.64184C65.5886 10.2001 64.9155 10.4793 64.1137 10.4793C63.3135 10.4793 62.6396 10.2001 62.092 9.64184C61.5444 9.08353 61.2706 8.41147 61.2706 7.62565C61.2706 6.83822 61.546 6.16374 62.0969 5.60221C62.6477 5.04068 63.32 4.75991 64.1137 4.75991ZM37.2584 4.89787L34.9262 10.4793L34.716 10.4793L33.1148 6.63329L31.5013 10.4793L31.2911 10.4793L28.998 4.89787L29.8487 4.89787L31.3913 8.78502L33.0145 4.89787L33.215 4.89787L34.826 8.7947L36.3979 4.89787L37.2584 4.89787ZM25.4544 9.71687C26.0085 9.71687 26.4852 9.5184 26.8845 9.12145Q27.1389 8.86952 27.2857 8.56559Q27.4859 8.15121 27.4859 7.64018C27.4859 7.04799 27.2887 6.55181 26.8943 6.15164C26.5015 5.75146 26.0199 5.55138 25.4495 5.55138Q25.0234 5.55138 24.6628 5.70503Q24.2993 5.85994 24.0023 6.171Q23.6914 6.49656 23.5439 6.88426Q23.4107 7.23445 23.4107 7.63533Q23.4107 8.01949 23.5358 8.35733Q23.685 8.76023 24.0121 9.09725Q24.3389 9.43401 24.7365 9.58774Q25.0705 9.71687 25.4544 9.71687ZM64.1137 9.69509C64.6678 9.69509 65.1404 9.49581 65.5316 9.09725C65.9227 8.69708 66.1183 8.21461 66.1183 7.64986C66.1183 7.08349 65.9194 6.59376 65.5218 6.18068C65.1241 5.7676 64.6531 5.56106 64.1088 5.56106C63.5661 5.56106 63.0975 5.7676 62.7031 6.18068C62.3087 6.59376 62.1115 7.0851 62.1115 7.6547C62.1115 8.22268 62.3014 8.70515 62.6811 9.10209C63.0625 9.49742 63.54 9.69509 64.1137 9.69509Z" fill="rgb(254.745,255,254.882)" fill-rule="evenodd" />
		<path id="LawOnGo" d="M18.3055 10.3002L18.3055 3.04385L19.1757 3.04385L19.1757 9.47725L21.9406 9.47725L21.9406 10.3002L18.3055 10.3002ZM27.4467 10.3002L27.4467 9.50872C26.8519 10.1558 26.1674 10.4793 25.3933 10.4793C24.6191 10.4793 23.9566 10.1969 23.4058 9.63216C22.8549 9.0674 22.5795 8.39372 22.5795 7.61113C22.5795 6.82692 22.8566 6.15567 23.4107 5.59737C23.9648 5.03906 24.6403 4.75991 25.4373 4.75991C26.2358 4.75991 26.9057 5.08021 27.4467 5.72081L27.4467 4.89787L28.2584 4.89787L28.2584 10.3002L27.4467 10.3002ZM26.8845 9.12145C27.2854 8.72451 27.4859 8.23075 27.4859 7.64018C27.4859 7.04799 27.2887 6.55181 26.8943 6.15164C26.5015 5.75146 26.0199 5.55138 25.4495 5.55138C24.8791 5.55138 24.3967 5.75792 24.0023 6.171C23.6079 6.58408 23.4107 7.07219 23.4107 7.63533C23.4107 8.19687 23.6111 8.68417 24.0121 9.09725C24.413 9.51033 24.8937 9.71687 25.4544 9.71687C26.0085 9.71687 26.4852 9.5184 26.8845 9.12145ZM34.9262 10.4793L34.716 10.4793L33.1148 6.63329L31.5013 10.4793L31.2911 10.4793L28.998 4.89787L29.8487 4.89787L31.3913 8.78502L33.0145 4.89787L33.215 4.89787L34.826 8.7947L36.3979 4.89787L37.2584 4.89787L34.9262 10.4793ZM43.5674 3.36577C44.1688 3.69978 44.6414 4.16127 44.9853 4.75023C45.3292 5.33758 45.5011 5.97656 45.5011 6.66718C45.5011 7.3578 45.3308 7.99759 44.9902 8.58655C44.6496 9.1739 44.1818 9.63619 43.587 9.97343C42.9937 10.3107 42.3484 10.4793 41.6508 10.4793C40.9533 10.4793 40.3038 10.3123 39.7025 9.97827C39.1011 9.64426 38.6301 9.18519 38.2895 8.60107C37.9505 8.01534 37.781 7.37716 37.781 6.68654C37.781 5.99592 37.9505 5.35533 38.2895 4.76475C38.6301 4.17256 39.0954 3.70785 39.6853 3.37061C40.2769 3.03337 40.9134 2.86475 41.5946 2.86475C42.3101 2.86475 42.9677 3.03175 43.5674 3.36577ZM43.7434 8.80438C44.3203 8.24285 44.6088 7.53933 44.6088 6.6938C44.6088 5.84667 44.3163 5.13588 43.7312 4.56144C43.1477 3.98539 42.4461 3.69736 41.6264 3.69736C40.7838 3.69736 40.0806 3.987 39.5167 4.56628C38.9528 5.14395 38.6708 5.84747 38.6708 6.67686C38.6708 7.50625 38.9609 8.20897 39.5411 8.78502C40.1229 9.35946 40.818 9.64668 41.6264 9.64668C42.4608 9.64668 43.1665 9.36591 43.7434 8.80438ZM50.6481 10.3002L50.6481 7.72247C50.6481 7.12867 50.6195 6.72446 50.5625 6.50985C50.5055 6.29363 50.4215 6.1113 50.3107 5.96285C50.2015 5.81439 50.0614 5.70386 49.8902 5.63125C49.7207 5.55864 49.5138 5.52233 49.2693 5.52233C49.0265 5.52233 48.7877 5.58204 48.553 5.70144C48.32 5.81924 48.1195 5.98463 47.9516 6.19762C47.7854 6.409 47.6705 6.63329 47.607 6.87049C47.545 7.10769 47.5141 7.5837 47.5141 8.29852L47.5141 10.3002L46.6829 10.3002L46.6829 4.89787L47.5141 4.89787L47.5141 5.71112C48.0535 5.07698 48.694 4.75991 49.4355 4.75991C49.8299 4.75991 50.1868 4.86076 50.5063 5.06246C50.8273 5.26255 51.0677 5.54008 51.2274 5.89507C51.3888 6.24845 51.4694 6.79143 51.4694 7.524L51.4694 10.3002L50.6481 10.3002ZM59.3938 9.49903C58.7224 10.1525 57.8399 10.4793 56.7463 10.4793C55.4898 10.4793 54.4875 10.0977 53.7394 9.33445C52.993 8.57122 52.6198 7.67729 52.6198 6.65266C52.6198 5.62802 52.993 4.74055 53.7394 3.99023C54.4875 3.23991 55.4523 2.86475 56.6339 2.86475C57.276 2.86475 57.8725 2.98254 58.4233 3.21812C58.9742 3.45209 59.5128 3.81031 60.0392 4.29278L59.3792 4.91724C58.9717 4.52675 58.5309 4.22743 58.0566 4.01927C57.5824 3.81112 57.0951 3.70704 56.5947 3.70704C56.0944 3.70704 55.5973 3.83936 55.1035 4.10399C54.6097 4.36862 54.2226 4.72603 53.9423 5.17622C53.662 5.6248 53.5219 6.11049 53.5219 6.63329C53.5219 7.44654 53.8299 8.15572 54.4459 8.76082C55.0636 9.3643 55.8369 9.66604 56.7659 9.66604C57.4536 9.66604 58.0477 9.47967 58.548 9.10693C59.0483 8.73258 59.3555 8.22188 59.4696 7.57482L57.1863 7.57482L57.1863 6.75189L60.4304 6.75189C60.4108 7.9282 60.0653 8.84391 59.3938 9.49903ZM66.1232 5.60221C66.674 6.16374 66.9494 6.83822 66.9494 7.62565C66.9494 8.41147 66.6773 9.08353 66.1329 9.64184C65.5886 10.2001 64.9155 10.4793 64.1137 10.4793C63.3135 10.4793 62.6396 10.2001 62.092 9.64184C61.5444 9.08353 61.2706 8.41147 61.2706 7.62565C61.2706 6.83822 61.546 6.16374 62.0969 5.60221C62.6477 5.04068 63.32 4.75991 64.1137 4.75991C64.9025 4.75991 65.5723 5.04068 66.1232 5.60221ZM65.5316 9.09725C65.9227 8.69708 66.1183 8.21461 66.1183 7.64986C66.1183 7.08349 65.9194 6.59376 65.5218 6.18068C65.1241 5.7676 64.6531 5.56106 64.1088 5.56106C63.5661 5.56106 63.0975 5.7676 62.7031 6.18068C62.3087 6.59376 62.1115 7.0851 62.1115 7.6547C62.1115 8.22268 62.3014 8.70515 62.6811 9.10209C63.0625 9.49742 63.54 9.69509 64.1137 9.69509C64.6678 9.69509 65.1404 9.49581 65.5316 9.09725Z" fill-rule="evenodd" stroke="rgb(254.749,255,254.745)" stroke-width="0.498746872" />
	</g>
</svg>
