<svg viewBox="0 0 17 18" xmlns="http://www.w3.org/2000/svg" xmlns:xlink="http://www.w3.org/1999/xlink" width="17" height="18" fill="none" customFrame="#000000">
	<path id="path" d="M10.3125 0.334255C10.2675 0.325063 10.2221 0.319561 10.1762 0.317749C9.7679 0.302526 9.41072 0.574769 9.32846 0.965864C9.2831 1.17806 9.32536 1.39495 9.44806 1.57666C9.57036 1.75817 9.75779 1.88217 9.97554 1.9255C11.7286 2.27843 13.238 3.27793 14.2252 4.73982C15.2119 6.20233 15.5559 7.9493 15.1952 9.65917C15.1498 9.87203 15.1921 10.0885 15.3148 10.2698C15.4371 10.4513 15.6245 10.575 15.8423 10.619C15.888 10.6278 15.9342 10.6332 15.9791 10.6353C16.1538 10.6418 16.3227 10.5954 16.4688 10.5019C16.6548 10.3824 16.782 10.1994 16.8268 9.9872C17.7586 5.57436 14.8367 1.24369 10.3125 0.334255ZM11.7467 12.5389C11.7959 12.5702 12.8953 13.2587 13.74 14.1048C14.058 14.4249 14.5908 14.9604 14.5767 15.5817C14.5648 16.0061 14.3193 16.4317 13.8257 16.881C13.703 16.9985 12.6036 18 10.8449 18C10.3631 18 9.86825 17.9254 9.37377 17.7786C8.85423 17.625 8.32587 17.3876 7.80501 17.0745C5.74841 15.8898 4.16117 14.3644 2.65401 12.127C0.0633378 8.28159 -0.0110341 4.98821 0.00086296 4.36757C0.00527389 1.50307 2.45123 0.376305 2.7301 0.25702C3.11373 0.0834603 3.44894 0 3.75776 0C3.90559 0 4.04725 0.0195258 4.17833 0.0585773C4.44799 0.138376 4.82237 0.345176 5.07399 0.876818C5.41712 1.59809 5.74181 2.63217 5.96351 3.71473C6.19667 4.83827 5.55085 5.15364 4.92618 5.45851L4.90152 5.46901C4.90152 5.46901 3.79644 5.9187 3.60201 5.99679C3.41109 6.07444 3.31165 6.28425 3.37676 6.47606C3.82239 7.79289 4.50296 9.15843 5.34408 10.425C6.17157 11.6713 7.15566 12.8215 8.18947 13.7525C8.26337 13.8182 8.35838 13.8551 8.45873 13.8551L8.49262 13.8534C8.60126 13.8448 8.70377 13.7912 8.77197 13.7058C8.93999 13.4951 9.19778 13.1916 9.46967 12.939C9.98525 12.4608 10.4515 12.2287 10.895 12.2287C11.0164 12.2287 11.137 12.2461 11.2531 12.2806C11.3644 12.3139 11.5443 12.4083 11.7467 12.5389ZM8.24846 6.99589C8.03025 6.95169 7.84284 6.82812 7.72056 6.64685C7.59737 6.46534 7.55515 6.24822 7.60003 6.0354C7.68362 5.64472 8.03994 5.37225 8.44774 5.38814C8.49308 5.38944 8.53883 5.39478 8.58455 5.404C10.518 5.79276 11.7669 7.64421 11.3688 9.53089C11.3243 9.7424 11.1977 9.92498 11.0116 10.0453C10.8651 10.1386 10.6953 10.1848 10.522 10.1788C10.4771 10.1764 10.4313 10.1715 10.3856 10.162C10.1669 10.1189 9.97912 9.99448 9.85682 9.81277C9.73452 9.63191 9.69228 9.41545 9.73717 9.20263C9.84011 8.71434 9.74245 8.21575 9.46 7.79827C9.17844 7.38163 8.74862 7.09631 8.24846 6.99589ZM9.11421 4.45061C8.6646 4.35964 8.37424 3.9295 8.46662 3.49118C8.54932 3.09965 8.90566 2.82697 9.31391 2.84243C9.35876 2.84435 9.40497 2.8495 9.45071 2.85893C11.0155 3.17364 12.3617 4.06527 13.2433 5.37072C14.1235 6.67533 14.431 8.23437 14.1081 9.7606C14.0633 9.97344 13.9361 10.1566 13.75 10.2753C13.6036 10.3695 13.4351 10.4156 13.2609 10.4089C13.2147 10.407 13.1689 10.4015 13.1236 10.3922C12.6749 10.3023 12.3841 9.87197 12.4765 9.4328C12.7092 8.33158 12.4875 7.20569 11.8514 6.26322C11.2153 5.32123 10.2439 4.67739 9.11421 4.45061Z" fill="rgb(6,148,86)" fill-rule="nonzero" />
</svg>
