<svg viewBox="0 0 26 26" xmlns="http://www.w3.org/2000/svg" xmlns:xlink="http://www.w3.org/1999/xlink" width="26" height="26" fill="none">
	<rect id="zhaiquanzhaiwu" width="26" height="26" x="0" y="0" />
	<path id="path" d="M18.5093 8.2243L1.40399 8.2243L1.40399 6.03482C1.40399 3.98219 3.0461 2.34009 5.09873 2.34009L14.8145 2.34009C16.8671 2.34009 18.5093 3.98219 18.5093 6.03482L18.5093 8.2243ZM3.31978 6.30851L16.5935 6.30851L16.5935 6.03482C16.5935 5.07693 15.7724 4.25588 14.8145 4.25588L5.09873 4.25588C4.14083 4.25588 3.31978 5.07693 3.31978 6.03482L3.31978 6.30851ZM22.8882 18.3506L17.1408 18.3506C15.4987 18.3506 13.9935 16.9822 13.9935 15.2032C13.9935 13.5611 15.3619 12.0559 17.1408 12.0559L22.8882 12.0559C23.4356 12.0559 23.8461 12.4664 23.8461 13.0138L23.8461 17.2559C23.8461 17.9401 23.4356 18.3506 22.8882 18.3506ZM17.1408 14.1085C16.4566 14.1085 15.9093 14.6559 15.9093 15.3401C15.9093 16.0243 16.4566 16.5717 17.1408 16.5717L21.9303 16.5717L21.9303 14.1085L17.1408 14.1085Z" fill="rgb(51,51,51)" fill-rule="nonzero" />
	<path id="path" d="M20.1514 24.2347L5.09873 24.2347C3.0461 24.2347 1.40399 22.5926 1.40399 20.5399L1.40399 6.30835L20.1514 6.30835C22.204 6.30835 23.8461 7.95045 23.8461 10.0031L23.8461 20.6768C23.8461 22.5926 22.204 24.2347 20.1514 24.2347ZM3.31978 8.22414L3.31978 20.6768C3.31978 21.6347 4.14083 22.4557 5.09873 22.4557L20.1514 22.4557C21.1093 22.4557 21.9303 21.6347 21.9303 20.6768L21.9303 10.0031C21.9303 9.04519 21.1093 8.22414 20.1514 8.22414L3.31978 8.22414Z" fill="rgb(51,51,51)" fill-rule="nonzero" />
	<path id="path" d="M5.09873 24.2347C3.0461 24.2347 1.40399 22.5926 1.40399 20.5399L1.40399 6.30835L20.1514 6.30835C22.204 6.30835 23.8461 7.95045 23.8461 10.0031L23.8461 20.6768C23.8461 22.5926 22.204 24.2347 20.1514 24.2347L5.09873 24.2347ZM3.31978 20.6768C3.31978 21.6347 4.14083 22.4557 5.09873 22.4557L20.1514 22.4557C21.1093 22.4557 21.9303 21.6347 21.9303 20.6768L21.9303 10.0031C21.9303 9.04519 21.1093 8.22414 20.1514 8.22414L3.31978 8.22414L3.31978 20.6768Z" fill-rule="nonzero" stroke="rgb(237,237,237)" stroke-opacity="0" stroke-width="0.100000001" />
	<path id="矢量 59" d="M22 13L17.3333 13C16 13 15 14 15 15C15 15 14.5 17.5 17.5 17.5L22 17.5" stroke="rgb(6,148,86)" stroke-width="2.4000001" />
</svg>
