<svg viewBox="0 0 24 24.96" xmlns="http://www.w3.org/2000/svg" xmlns:xlink="http://www.w3.org/1999/xlink" width="24" height="24.9599609" fill="none">
	<rect id="zonghe" width="24" height="24.9599991" x="0" y="0" />
	<g id="组合 762">
		<path id="path" d="M11.394 11.791L4.37918 11.791C2.95694 11.791 1.7999 10.5877 1.7999 9.10855L1.7999 4.49544C1.7999 3.01631 2.95694 1.81299 4.37918 1.81299L8.81474 1.81299C10.237 1.81299 11.394 3.01631 11.394 4.49544L11.394 11.791ZM4.95386 3.82863C4.28342 3.82863 3.7379 4.39585 3.7379 5.09336L3.7379 8.511C3.7379 9.20826 4.28342 9.7756 4.95386 9.7756L9.45613 9.7756L9.45613 5.09323C9.45613 4.39597 8.91062 3.82851 8.24018 3.82851L4.95386 3.82863ZM11.394 13.0449L4.37918 13.0449C2.95694 13.0449 1.7999 14.2483 1.7999 15.7273L1.7999 20.3405C1.7999 21.8197 2.95694 23.023 4.37918 23.023L8.81474 23.023C10.237 23.023 11.394 21.8196 11.394 20.3405L11.394 13.0449ZM4.95386 21.0075C4.28342 21.0075 3.7379 20.44 3.7379 19.7426L3.7379 16.325C3.7379 15.6279 4.28342 15.0604 4.95386 15.0604L9.45602 15.0604L9.45602 19.7426C9.45602 20.44 8.9105 21.0075 8.24006 21.0075L4.95386 21.0075ZM12.5999 11.791L19.6147 11.791C21.037 11.791 22.194 10.5877 22.194 9.10855L22.194 4.49544C22.194 3.01631 21.0369 1.81299 19.6147 1.81299L15.1792 1.81299C13.7569 1.81299 12.5999 3.01631 12.5999 4.49544L12.5999 11.791ZM19.0401 3.82863C19.7105 3.82863 20.2561 4.39585 20.2561 5.09336L20.2561 8.511C20.2561 9.20826 19.7105 9.7756 19.0401 9.7756L14.5379 9.7756L14.5379 5.09323C14.5379 4.39597 15.0834 3.82851 15.7539 3.82851L19.0401 3.82863ZM12.5999 13.0449L19.6147 13.0449C21.037 13.0449 22.194 14.2483 22.194 15.7273L22.194 20.3405C22.194 21.8197 21.0369 23.023 19.6147 23.023L15.1792 23.023C13.7569 23.023 12.5999 21.8196 12.5999 20.3405L12.5999 13.0449ZM19.0401 21.0075C19.7105 21.0075 20.2561 20.44 20.2561 19.7426L20.2561 16.325C20.2561 15.6279 19.7105 15.0604 19.0401 15.0604L14.5379 15.0604L14.5379 19.7426C14.5379 20.44 15.0834 21.0075 15.7539 21.0075L19.0401 21.0075Z" fill="rgb(51,51,51)" fill-rule="nonzero" />
		<path id="path" d="M11.394 11.791L4.37918 11.791C2.95694 11.791 1.7999 10.5877 1.7999 9.10855L1.7999 4.49544C1.7999 3.01631 2.95694 1.81299 4.37918 1.81299L8.81474 1.81299C10.237 1.81299 11.394 3.01631 11.394 4.49544L11.394 11.791ZM4.95386 3.82863C4.28342 3.82863 3.7379 4.39585 3.7379 5.09336L3.7379 8.511C3.7379 9.20826 4.28342 9.7756 4.95386 9.7756L9.45613 9.7756L9.45613 5.09323C9.45613 4.39597 8.91062 3.82851 8.24018 3.82851L4.95386 3.82863ZM11.394 13.0449L4.37918 13.0449C2.95694 13.0449 1.7999 14.2483 1.7999 15.7273L1.7999 20.3405C1.7999 21.8197 2.95694 23.023 4.37918 23.023L8.81474 23.023C10.237 23.023 11.394 21.8196 11.394 20.3405L11.394 13.0449ZM4.95386 21.0075C4.28342 21.0075 3.7379 20.44 3.7379 19.7426L3.7379 16.325C3.7379 15.6279 4.28342 15.0604 4.95386 15.0604L9.45602 15.0604L9.45602 19.7426C9.45602 20.44 8.9105 21.0075 8.24006 21.0075L4.95386 21.0075ZM12.5999 11.791L19.6147 11.791C21.037 11.791 22.194 10.5877 22.194 9.10855L22.194 4.49544C22.194 3.01631 21.0369 1.81299 19.6147 1.81299L15.1792 1.81299C13.7569 1.81299 12.5999 3.01631 12.5999 4.49544L12.5999 11.791ZM19.0401 3.82863C19.7105 3.82863 20.2561 4.39585 20.2561 5.09336L20.2561 8.511C20.2561 9.20826 19.7105 9.7756 19.0401 9.7756L14.5379 9.7756L14.5379 5.09323C14.5379 4.39597 15.0834 3.82851 15.7539 3.82851L19.0401 3.82863ZM12.5999 13.0449L19.6147 13.0449C21.037 13.0449 22.194 14.2483 22.194 15.7273L22.194 20.3405C22.194 21.8197 21.0369 23.023 19.6147 23.023L15.1792 23.023C13.7569 23.023 12.5999 21.8196 12.5999 20.3405L12.5999 13.0449ZM19.0401 21.0075C19.7105 21.0075 20.2561 20.44 20.2561 19.7426L20.2561 16.325C20.2561 15.6279 19.7105 15.0604 19.0401 15.0604L14.5379 15.0604L14.5379 19.7426C14.5379 20.44 15.0834 21.0075 15.7539 21.0075L19.0401 21.0075Z" fill="rgb(51,51,51)" fill-rule="nonzero" />
		<path id="path" d="M12.5762 13.0559L19.5883 13.0559C21.01 13.0559 22.1666 14.2594 22.1666 15.7384L22.1666 20.3516C22.1666 21.8307 21.0099 23.034 19.5883 23.034L15.1545 23.034C13.7328 23.034 12.5762 21.8306 12.5762 20.3516L12.5762 13.0559ZM19.0139 21.0185C19.684 21.0185 20.2295 20.4511 20.2295 19.7537L20.2295 16.336C20.2295 15.6389 19.684 15.0714 19.0139 15.0714L14.5135 15.0714L14.5135 19.7537C14.5135 20.4511 15.0588 21.0185 15.7289 21.0185L19.0139 21.0185Z" fill="rgb(51,51,51)" fill-rule="nonzero" />
		<path id="path" d="M12.5762 13.0559L19.5883 13.0559C21.01 13.0559 22.1666 14.2594 22.1666 15.7384L22.1666 20.3516C22.1666 21.8307 21.0099 23.034 19.5883 23.034L15.1545 23.034C13.7328 23.034 12.5762 21.8306 12.5762 20.3516L12.5762 13.0559ZM19.0139 21.0185C19.684 21.0185 20.2295 20.4511 20.2295 19.7537L20.2295 16.336C20.2295 15.6389 19.684 15.0714 19.0139 15.0714L14.5135 15.0714L14.5135 19.7537C14.5135 20.4511 15.0588 21.0185 15.7289 21.0185L19.0139 21.0185Z" fill="rgb(6,148,86)" fill-rule="nonzero" />
	</g>
</svg>
