<svg viewBox="0 0 23 24" xmlns="http://www.w3.org/2000/svg" xmlns:xlink="http://www.w3.org/1999/xlink" width="23" height="24" fill="none" customFrame="#000000">
	<defs>
		<linearGradient id="paint_linear_8" x1="11.5" x2="11.5" y1="0" y2="24" gradientUnits="userSpaceOnUse">
			<stop stop-color="rgb(254.745,255,254.888)" offset="0" stop-opacity="1" />
			<stop stop-color="rgb(217.909,255,238.583)" offset="0.782677114" stop-opacity="1" />
		</linearGradient>
	</defs>
	<path id="path" d="M13.9522 0.445673C13.8914 0.433418 13.8299 0.426082 13.7677 0.423666C13.2154 0.403368 12.7321 0.766359 12.6209 1.28782C12.5595 1.57075 12.6167 1.85994 12.7827 2.10222C12.9481 2.34422 13.2017 2.50956 13.4963 2.56733C15.8681 3.03791 17.9102 4.37057 19.2458 6.31976C20.5808 8.26977 21.0463 10.5991 20.5582 12.8789C20.4968 13.1627 20.554 13.4513 20.72 13.693C20.8855 13.935 21.1391 14.1001 21.4337 14.1587C21.4956 14.1704 21.5581 14.1776 21.6188 14.1804C21.8551 14.189 22.0836 14.1272 22.2812 14.0025C22.533 13.8432 22.705 13.5992 22.7657 13.3163C24.0263 7.43248 20.0732 1.65826 13.9522 0.445673ZM15.8926 16.7185C15.9592 16.7603 17.4466 17.6783 18.5894 18.8064C19.0197 19.2332 19.7405 19.9472 19.7214 20.7756C19.7053 21.3414 19.3732 21.909 18.7054 22.5079C18.5393 22.6647 17.052 24 14.6725 24C14.0207 24 13.3512 23.9005 12.6822 23.7047C11.9793 23.4999 11.2644 23.1835 10.5597 22.766C7.77726 21.1864 5.62982 19.1526 3.59072 16.1693C0.0856924 11.0421 -0.0149285 6.65095 0.00116753 5.82342C0.00713527 2.00409 3.31637 0.501741 3.69367 0.342694C4.21269 0.11128 4.66622 0 5.08402 0C5.28403 0 5.47569 0.0260344 5.65303 0.078103C6.01787 0.184502 6.52439 0.460234 6.86481 1.16909C7.32904 2.13079 7.76833 3.50956 8.06827 4.95298C8.38373 6.45103 7.50997 6.87152 6.66483 7.27801L6.63146 7.29202C6.63146 7.29202 5.13636 7.89161 4.87331 7.99572C4.615 8.09925 4.48047 8.37901 4.56855 8.63474C5.17147 10.3905 6.09224 12.2112 7.23023 13.9001C8.34976 15.5618 9.68119 17.0953 11.0799 18.3367C11.1799 18.4243 11.3084 18.4735 11.4442 18.4735L11.49 18.4712C11.637 18.4598 11.7757 18.3882 11.868 18.2744C12.0953 17.9935 12.4441 17.5887 12.8119 17.2521C13.5095 16.6145 14.1403 16.3049 14.7403 16.3049C14.9046 16.3049 15.0677 16.3281 15.2248 16.3742C15.3754 16.4185 15.6188 16.5444 15.8926 16.7185ZM11.1597 9.32785C10.8645 9.26892 10.6109 9.10416 10.4455 8.86246C10.2788 8.62046 10.2217 8.33096 10.2824 8.04721C10.3955 7.5263 10.8776 7.163 11.4293 7.18419C11.4906 7.18592 11.5525 7.19304 11.6144 7.20534C14.2302 7.72368 15.92 10.1923 15.3813 12.7079C15.3212 12.9899 15.1498 13.2333 14.898 13.3938C14.6998 13.5182 14.4701 13.5797 14.2356 13.5717C14.1749 13.5686 14.113 13.562 14.0511 13.5494C13.7553 13.4919 13.5012 13.326 13.3357 13.0837C13.1702 12.8425 13.1131 12.5539 13.1738 12.2702C13.3131 11.6191 13.181 10.9543 12.7988 10.3977C12.4179 9.84217 11.8364 9.46175 11.1597 9.32785ZM12.331 5.93415C11.7227 5.81286 11.3299 5.23933 11.4548 4.65491C11.5667 4.13287 12.0488 3.7693 12.6012 3.7899C12.6619 3.79247 12.7244 3.79933 12.7863 3.81191C14.9033 4.23152 16.7246 5.42036 17.9174 7.16096C19.1083 8.90044 19.5243 10.9792 19.0875 13.0141C19.0268 13.2979 18.8547 13.5422 18.603 13.7004C18.4048 13.826 18.1769 13.8874 17.9412 13.8786C17.8786 13.8761 17.8167 13.8686 17.7555 13.8563C17.1484 13.7365 16.755 13.1626 16.8799 12.5771C17.1948 11.1088 16.8948 9.60758 16.0342 8.35096C15.1736 7.09497 13.8594 6.23652 12.331 5.93415Z" fill="url(#paint_linear_8)" fill-rule="nonzero" />
</svg>
