<svg viewBox="0 0 28 28" xmlns="http://www.w3.org/2000/svg" xmlns:xlink="http://www.w3.org/1999/xlink" width="28" height="28" fill="none">
	<defs>
		<linearGradient id="paint_linear_7" x1="13.9959021" x2="13.9959021" y1="3.5" y2="32.6666679" gradientUnits="userSpaceOnUse">
			<stop stop-color="rgb(254.745,255,254.888)" offset="0" stop-opacity="1" />
			<stop stop-color="rgb(255,236.455,208.636)" offset="0.907634437" stop-opacity="1" />
		</linearGradient>
	</defs>
	<rect id="svg" width="28" height="28" x="0" y="0" />
	<path id="path" d="M25.2684 10.4809C24.6477 9.11641 23.7617 7.88867 22.6297 6.83594C21.5059 5.78867 20.1961 4.96563 18.7414 4.39141C17.2375 3.80078 15.6406 3.5 13.9945 3.5C12.3484 3.5 10.7516 3.80078 9.24766 4.39141C7.79024 4.96563 6.4832 5.78867 5.35938 6.83594C4.23008 7.88867 3.34414 9.11367 2.7207 10.4809C2.07812 11.9027 1.75 13.4094 1.75 14.9652C1.75 17.7625 2.82734 20.434 4.79336 22.5313L5.3457 27.2344C5.37852 27.5215 5.55352 27.7731 5.81328 27.9016C5.93359 27.9617 6.06484 27.9945 6.20156 27.9945C6.34648 27.9945 6.49688 27.9563 6.62813 27.8824L10.1746 25.8672C11.4051 26.2445 12.6875 26.4359 13.9973 26.4359C15.6434 26.4359 17.2402 26.1352 18.7441 25.5445C20.2016 24.9703 21.5086 24.1473 22.6324 23.1C23.7617 22.0473 24.6477 20.8223 25.2711 19.4551C25.9164 18.0332 26.2418 16.5266 26.2418 14.9707C26.2391 13.4121 25.9109 11.9027 25.2684 10.4809ZM8.73086 16.2969C8.00625 16.2969 7.41563 15.709 7.41563 14.9816C7.41563 14.2543 8.00352 13.6664 8.73086 13.6664C9.4582 13.6664 10.0461 14.2543 10.0461 14.9816C10.0461 15.709 9.4582 16.2969 8.73086 16.2969ZM13.9918 16.2969C13.2672 16.2969 12.6766 15.709 12.6766 14.9816C12.6766 14.2543 13.2645 13.6664 13.9918 13.6664C14.7164 13.6664 15.307 14.2543 15.307 14.9816C15.307 15.709 14.7164 16.2969 13.9918 16.2969ZM19.2555 16.2969C18.5309 16.2969 17.9402 15.709 17.9402 14.9816C17.9402 14.2543 18.5281 13.6664 19.2555 13.6664C19.9801 13.6664 20.5707 14.2543 20.5707 14.9816C20.568 15.7063 19.9801 16.2969 19.2555 16.2969Z" fill="url(#paint_linear_7)" fill-rule="nonzero" />
</svg>
