<svg viewBox="0 0 37 38" xmlns="http://www.w3.org/2000/svg" xmlns:xlink="http://www.w3.org/1999/xlink" width="37" height="38" fill="none" customFrame="#000000">
	<defs>
		<g id="pixso_custom_effect_1">
			<effect x="0" y="1" visibility="visible" fill="rgb(255,255,255)" fill-opacity="0.699999988" effectType="innerShadow" stdDeviation="0" radius="0" />
		</g>
		<filter id="filter_1" width="37" height="38" x="0" y="0" filterUnits="userSpaceOnUse" customEffect="url(#pixso_custom_effect_1)" color-interpolation-filters="sRGB">
			<feFlood flood-opacity="0" result="BackgroundImageFix" />
			<feBlend result="shape" in="SourceGraphic" in2="BackgroundImageFix" mode="normal" />
			<feColorMatrix result="hardAlpha" in="SourceAlpha" type="matrix" values="0 0 0 0 0 0 0 0 0 0 0 0 0 0 0 0 0 0 127 0 " />
			<feOffset dx="0" dy="1" />
			<feGaussianBlur stdDeviation="0" />
			<feComposite k2="-1" k3="1" in2="hardAlpha" operator="arithmetic" />
			<feColorMatrix type="matrix" values="0 0 0 0 1 0 0 0 0 1 0 0 0 0 1 0 0 0 0.7 0 " />
			<feBlend result="effect_innerShadow_1" in2="shape" mode="normal" />
		</filter>
		<linearGradient id="paint_linear_1" x1="18.4999847" x2="28.0000038" y1="-4.76837158e-07" y2="38" gradientUnits="userSpaceOnUse">
			<stop stop-color="rgb(255,255,255)" offset="0" stop-opacity="0.741379321" />
			<stop stop-color="rgb(255,255,255)" offset="1" stop-opacity="0.264367819" />
		</linearGradient>
	</defs>
	<g filter="url(#filter_1)">
		<path id="path" d="M22.4449 0.705649C22.347 0.686244 22.2481 0.674629 22.1481 0.670804C21.2596 0.638665 20.4822 1.2134 20.3031 2.03905C20.2044 2.48702 20.2964 2.9449 20.5634 3.32851C20.8296 3.71169 21.2375 3.97347 21.7115 4.06495C25.527 4.81003 28.8121 6.92007 30.9607 10.0063C33.1083 13.0938 33.857 16.7819 33.0719 20.3916C32.9732 20.841 33.0651 21.2979 33.3322 21.6806C33.5984 22.0638 34.0063 22.3251 34.4803 22.418C34.5798 22.4365 34.6804 22.4479 34.7781 22.4524C35.1582 22.466 35.5258 22.3681 35.8438 22.1706C36.2487 21.9184 36.5254 21.532 36.6231 21.0841C38.6511 11.7681 32.2916 2.62557 22.4449 0.705649ZM25.5663 26.471C25.6735 26.5372 28.0663 27.9906 29.9047 29.7768C30.5969 30.4526 31.7564 31.5831 31.7257 32.8947C31.6998 33.7906 31.1656 34.6892 30.0913 35.6376C29.8242 35.8857 27.4314 38 23.6035 38C22.555 38 21.478 37.8424 20.4017 37.5325C19.271 37.2082 18.121 36.7073 16.9874 36.0461C12.5112 33.5451 9.05666 30.3249 5.77638 25.6015C0.137853 17.4834 -0.0240155 10.5307 0.00187821 9.22042C0.0114785 3.17315 5.33504 0.794423 5.94198 0.542598C6.77694 0.176194 7.50653 0 8.17864 0C8.50039 0 8.80872 0.0412212 9.09401 0.123663C9.68092 0.292128 10.4958 0.728704 11.0434 1.85106C11.7902 3.37375 12.4969 5.55681 12.9794 7.84222C13.4869 10.2141 12.0813 10.8799 10.7217 11.5235L10.668 11.5457C10.668 11.5457 8.26283 12.495 7.83968 12.6599C7.42414 12.8238 7.20771 13.2668 7.34941 13.6717C8.31933 16.4517 9.80056 19.3345 11.6312 22.0084C13.4322 24.6394 15.5741 27.0675 17.8241 29.0332C17.985 29.1718 18.1918 29.2497 18.4102 29.2497L18.4839 29.246C18.7204 29.2279 18.9435 29.1147 19.0919 28.9345C19.4576 28.4897 20.0187 27.8488 20.6105 27.3158C21.7326 26.3062 22.7475 25.8162 23.7127 25.8162C23.9769 25.8162 24.2393 25.8528 24.4921 25.9258C24.7343 25.996 25.1259 26.1952 25.5663 26.471ZM17.9525 14.7691C17.4776 14.6758 17.0697 14.4149 16.8036 14.0322C16.5355 13.6491 16.4436 13.1907 16.5412 12.7414C16.7232 11.9166 17.4987 11.3414 18.3863 11.375C18.4849 11.3777 18.5845 11.389 18.684 11.4085C22.8921 12.2292 25.6104 16.1378 24.7438 20.1208C24.6471 20.5673 24.3714 20.9527 23.9664 21.2068C23.6476 21.4038 23.278 21.5012 22.9008 21.4885C22.803 21.4836 22.7035 21.4731 22.6039 21.4532C22.128 21.3622 21.7193 21.0995 21.4531 20.7158C21.1869 20.334 21.095 19.8771 21.1927 19.4278C21.4167 18.3969 21.2042 17.3444 20.5894 16.463C19.9766 15.5834 19.0411 14.9811 17.9525 14.7691ZM19.8368 9.39574C18.8583 9.20369 18.2263 8.2956 18.4273 7.37027C18.6074 6.54371 19.3829 5.96806 20.2715 6.00068C20.3691 6.00474 20.4696 6.01561 20.5692 6.03552C23.9749 6.69991 26.9049 8.58223 28.8236 11.3382C30.7395 14.0924 31.4087 17.3837 30.706 20.6057C30.6083 21.055 30.3316 21.4418 29.9265 21.6923C29.6077 21.8911 29.241 21.9885 28.8619 21.9744C28.7613 21.9704 28.6617 21.9586 28.5631 21.9391C27.5865 21.7494 26.9536 20.8408 27.1547 19.9137C27.6612 17.5889 27.1787 15.212 25.7941 13.2224C24.4097 11.2337 22.2956 9.87449 19.8368 9.39574Z" opacity="0.5" fill="url(#paint_linear_1)" fill-rule="nonzero" transform="matrix(-1,0,0,1,37,0)" />
	</g>
</svg>
