<svg viewBox="0 0 156 98" xmlns="http://www.w3.org/2000/svg" xmlns:xlink="http://www.w3.org/1999/xlink" width="156" height="98" fill="none" customFrame="#000000">
	<mask id="mask_0" width="156" height="98" x="0" y="0" maskUnits="userSpaceOnUse" mask-type="alpha">
		<g filter="url(#pixso_custom_mask_type_alpha)">
			<path id="矩形 458" d="M10 0L146 0C151.523 0 156 4.47715 156 10L156 88C156 93.5229 151.523 98 146 98L10 98C4.47715 98 0 93.5229 0 88L0 10C0 4.47715 4.47715 0 10 0Z" fill="url(#paint_linear_2)" fill-rule="evenodd" />
		</g>
	</mask>
	<defs>
		<linearGradient id="paint_linear_2" x1="140.919952" x2="18.2000122" y1="6.8055191" y2="104.124992" gradientUnits="userSpaceOnUse">
			<stop stop-color="rgb(0,175.312,98.7676)" offset="0" stop-opacity="1" />
			<stop stop-color="rgb(86.1556,210.603,154.729)" offset="1" stop-opacity="1" />
		</linearGradient>
		<filter id="pixso_custom_mask_type_alpha">
			<feColorMatrix type="matrix" values="0 0 0 0 1 0 0 0 0 1 0 0 0 0 1 0 0 0 1 0 " />
		</filter>
		<linearGradient id="paint_linear_3" x1="81.5" x2="81.5" y1="0" y2="101" gradientUnits="userSpaceOnUse">
			<stop stop-color="rgb(145.419,255,122.864)" offset="0.0439812317" stop-opacity="1" />
			<stop stop-color="rgb(11,179,106)" offset="1" stop-opacity="1" />
		</linearGradient>
		<linearGradient id="paint_linear_4" x1="81.5" x2="81.5" y1="0" y2="101" gradientUnits="userSpaceOnUse">
			<stop stop-color="rgb(69.5454,255,133.495)" offset="0.0450888723" stop-opacity="1" />
			<stop stop-color="rgb(11,179,106)" offset="1" stop-opacity="1" />
		</linearGradient>
		<linearGradient id="paint_linear_5" x1="66.5884018" x2="81.5" y1="1.01305962" y2="100.999931" gradientUnits="userSpaceOnUse">
			<stop stop-color="rgb(150.682,255,53.3182)" offset="0" stop-opacity="1" />
			<stop stop-color="rgb(150.682,255,53.3182)" offset="1" stop-opacity="0" />
		</linearGradient>
	</defs>
	<g id="蒙版" mask="url(#mask_0)">
		<ellipse id="椭圆 130" rx="81.5" ry="50.5" cx="81.5" cy="50.5" opacity="0.129999995" fill="url(#paint_linear_3)" transform="matrix(0.986565,0.163372,-0.163372,0.986565,-32.4995,40)" />
		<ellipse id="椭圆 131" rx="81.5" ry="50.5" cx="81.5" cy="50.5" opacity="0.0900000036" fill="url(#paint_linear_4)" fill-opacity="0" transform="matrix(0.867525,0.497394,-0.497394,0.867525,104.237,17)" />
		<ellipse id="椭圆 131" rx="81.5" ry="50.5" cx="81.5" cy="50.5" opacity="0.0900000036" stroke="url(#paint_linear_5)" stroke-width="27" transform="matrix(0.867525,0.497394,-0.497394,0.867525,104.237,17)" />
	</g>
</svg>
