<svg viewBox="0 0 12 12" xmlns="http://www.w3.org/2000/svg" xmlns:xlink="http://www.w3.org/1999/xlink" width="12" height="12" fill="none">
	<rect id="university-full" width="12" height="12" x="0" y="0" />
	<path id="path" d="M11.9953 2.80068L11.9953 3.60107L11.7598 3.60107C11.502 3.60107 11.2559 3.70303 11.0684 3.88115L11.066 3.8835C10.9805 3.96318 10.8797 4.00186 10.7625 4.00186L1.23047 4.00186C1.11211 4.00186 1.0125 3.96318 0.928125 3.8835C0.926953 3.88232 0.925781 3.88232 0.924609 3.88115C0.737109 3.7042 0.491016 3.60225 0.233203 3.60225L0 3.60225L0 2.80068L5.99766 0.401855L11.9953 2.80068ZM11.5629 10.3968L0.43125 10.3968C0.314063 10.3968 0.213281 10.4355 0.128906 10.5151C0.0421875 10.5948 0 10.6886 0 10.7976L0 11.5979L11.9953 11.5979L11.9953 10.7976C11.9953 10.6886 11.952 10.5948 11.8664 10.5151C11.7809 10.4355 11.6813 10.3968 11.5629 10.3968ZM11.1973 9.59756L11.1973 9.996L0.800391 9.996L0.800391 9.59756C0.800391 9.48975 0.842578 9.39483 0.929297 9.31514C1.01484 9.23545 1.11563 9.19678 1.23164 9.19678L1.60078 9.19678L1.59961 4.39912L3.19922 4.39912L3.19922 9.19678L3.99961 9.19678L3.99961 4.39912L5.59805 4.39912L5.59805 9.19678L6.40195 9.19678L6.40195 4.39912L8.00039 4.39912L8.00039 9.19678L8.79844 9.19678L8.79844 4.39912L10.3969 4.39912L10.3969 9.19678L10.766 9.19678C10.8844 9.19678 10.9828 9.23545 11.0684 9.31514C11.1539 9.39482 11.1973 9.48975 11.1973 9.59756Z" fill="rgb(0,0,0)" fill-opacity="0.300000012" fill-rule="nonzero" />
</svg>
